  0
SECTION
  2
BLOCKS
  0
ENDSEC
  0
SECTION
  2
ENTITIES
  0
LINE
  8
0
 10
10.95
 20
1270.15
 11
16.425
 21
1270.15
  0
LINE
  8
0
 10
16.425
 20
1270.15
 11
16.425
 21
1267.05
  0
LINE
  8
0
 10
16.425
 20
1267.05
 11
21.9
 21
1267.05
  0
LINE
  8
0
 10
21.9
 20
1267.05
 11
21.9
 21
1270.15
  0
LINE
  8
0
 10
21.9
 20
1270.15
 11
27.375
 21
1270.15
  0
LINE
  8
0
 10
27.375
 20
1270.15
 11
27.375
 21
1267.05
  0
LINE
  8
0
 10
27.375
 20
1267.05
 11
32.85
 21
1267.05
  0
LINE
  8
0
 10
32.85
 20
1267.05
 11
32.85
 21
1270.15
  0
LINE
  8
0
 10
32.85
 20
1270.15
 11
38.325
 21
1270.15
  0
LINE
  8
0
 10
38.325
 20
1270.15
 11
38.325
 21
1267.05
  0
LINE
  8
0
 10
38.325
 20
1267.05
 11
43.8
 21
1267.05
  0
LINE
  8
0
 10
43.8
 20
1267.05
 11
43.8
 21
1294.38
  0
LINE
  8
0
 10
43.8
 20
1294.38
 11
46.9
 21
1294.38
  0
LINE
  8
0
 10
46.9
 20
1294.38
 11
46.9
 21
1318.6
  0
LINE
  8
0
 10
46.9
 20
1318.6
 11
43.8
 21
1318.6
  0
LINE
  8
0
 10
43.8
 20
1318.6
 11
43.8
 21
1342.82
  0
LINE
  8
0
 10
43.8
 20
1342.82
 11
46.9
 21
1342.82
  0
LINE
  8
0
 10
46.9
 20
1342.82
 11
46.9
 21
1367.05
  0
LINE
  8
0
 10
46.9
 20
1367.05
 11
43.8
 21
1367.05
  0
LINE
  8
0
 10
43.8
 20
1367.05
 11
43.8
 21
1391.28
  0
LINE
  8
0
 10
43.8
 20
1391.28
 11
46.9
 21
1391.28
  0
LINE
  8
0
 10
46.9
 20
1391.28
 11
46.9
 21
1415.5
  0
LINE
  8
0
 10
46.9
 20
1415.5
 11
43.8
 21
1415.5
  0
LINE
  8
0
 10
43.8
 20
1415.5
 11
43.8
 21
1439.72
  0
LINE
  8
0
 10
43.8
 20
1439.72
 11
46.9
 21
1439.72
  0
LINE
  8
0
 10
46.9
 20
1439.72
 11
46.9
 21
1467.05
  0
LINE
  8
0
 10
46.9
 20
1467.05
 11
38.325
 21
1467.05
  0
LINE
  8
0
 10
38.325
 20
1467.05
 11
38.325
 21
1463.95
  0
LINE
  8
0
 10
38.325
 20
1463.95
 11
32.85
 21
1463.95
  0
LINE
  8
0
 10
32.85
 20
1463.95
 11
32.85
 21
1467.05
  0
LINE
  8
0
 10
32.85
 20
1467.05
 11
27.375
 21
1467.05
  0
LINE
  8
0
 10
27.375
 20
1467.05
 11
27.375
 21
1463.95
  0
LINE
  8
0
 10
27.375
 20
1463.95
 11
21.9
 21
1463.95
  0
LINE
  8
0
 10
21.9
 20
1463.95
 11
21.9
 21
1467.05
  0
LINE
  8
0
 10
21.9
 20
1467.05
 11
16.425
 21
1467.05
  0
LINE
  8
0
 10
16.425
 20
1467.05
 11
16.425
 21
1463.95
  0
LINE
  8
0
 10
16.425
 20
1463.95
 11
10.95
 21
1463.95
  0
LINE
  8
0
 10
10.95
 20
1463.95
 11
10.95
 21
1467.05
  0
LINE
  8
0
 10
10.95
 20
1467.05
 11
5.47499
 21
1467.05
  0
LINE
  8
0
 10
5.47499
 20
1467.05
 11
5.47499
 21
1463.95
  0
LINE
  8
0
 10
5.47499
 20
1463.95
 11
-3.09999
 21
1463.95
  0
LINE
  8
0
 10
-3.09999
 20
1463.95
 11
-3.09999
 21
1439.72
  0
LINE
  8
0
 10
-3.09999
 20
1439.72
 11
0
 21
1439.72
  0
LINE
  8
0
 10
0
 20
1439.72
 11
0
 21
1415.5
  0
LINE
  8
0
 10
0
 20
1415.5
 11
-3.09999
 21
1415.5
  0
LINE
  8
0
 10
-3.09999
 20
1415.5
 11
-3.09999
 21
1391.28
  0
LINE
  8
0
 10
-3.09999
 20
1391.28
 11
0
 21
1391.28
  0
LINE
  8
0
 10
0
 20
1391.28
 11
0
 21
1367.05
  0
LINE
  8
0
 10
0
 20
1367.05
 11
-3.09999
 21
1367.05
  0
LINE
  8
0
 10
-3.09999
 20
1367.05
 11
-3.09999
 21
1342.82
  0
LINE
  8
0
 10
-3.09999
 20
1342.82
 11
0
 21
1342.82
  0
LINE
  8
0
 10
0
 20
1342.82
 11
0
 21
1318.6
  0
LINE
  8
0
 10
0
 20
1318.6
 11
-3.09999
 21
1318.6
  0
LINE
  8
0
 10
-3.09999
 20
1318.6
 11
-3.09999
 21
1294.38
  0
LINE
  8
0
 10
-3.09999
 20
1294.38
 11
0
 21
1294.38
  0
LINE
  8
0
 10
0
 20
1294.38
 11
0
 21
1270.15
  0
LINE
  8
0
 10
0
 20
1270.15
 11
5.47499
 21
1270.15
  0
LINE
  8
0
 10
5.47499
 20
1270.15
 11
5.47499
 21
1267.05
  0
LINE
  8
0
 10
5.47499
 20
1267.05
 11
10.95
 21
1267.05
  0
LINE
  8
0
 10
10.95
 20
1267.05
 11
10.95
 21
1270.15
  0
LINE
  8
0
 10
10.95
 20
1068.6
 11
16.425
 21
1068.6
  0
LINE
  8
0
 10
16.425
 20
1068.6
 11
16.425
 21
1065.5
  0
LINE
  8
0
 10
16.425
 20
1065.5
 11
21.9
 21
1065.5
  0
LINE
  8
0
 10
21.9
 20
1065.5
 11
21.9
 21
1068.6
  0
LINE
  8
0
 10
21.9
 20
1068.6
 11
27.375
 21
1068.6
  0
LINE
  8
0
 10
27.375
 20
1068.6
 11
27.375
 21
1065.5
  0
LINE
  8
0
 10
27.375
 20
1065.5
 11
32.85
 21
1065.5
  0
LINE
  8
0
 10
32.85
 20
1065.5
 11
32.85
 21
1068.6
  0
LINE
  8
0
 10
32.85
 20
1068.6
 11
38.325
 21
1068.6
  0
LINE
  8
0
 10
38.325
 20
1068.6
 11
38.325
 21
1065.5
  0
LINE
  8
0
 10
38.325
 20
1065.5
 11
43.8
 21
1065.5
  0
LINE
  8
0
 10
43.8
 20
1065.5
 11
43.8
 21
1092.82
  0
LINE
  8
0
 10
43.8
 20
1092.82
 11
46.9
 21
1092.82
  0
LINE
  8
0
 10
46.9
 20
1092.82
 11
46.9
 21
1117.05
  0
LINE
  8
0
 10
46.9
 20
1117.05
 11
43.8
 21
1117.05
  0
LINE
  8
0
 10
43.8
 20
1117.05
 11
43.8
 21
1141.28
  0
LINE
  8
0
 10
43.8
 20
1141.28
 11
46.9
 21
1141.28
  0
LINE
  8
0
 10
46.9
 20
1141.28
 11
46.9
 21
1165.5
  0
LINE
  8
0
 10
46.9
 20
1165.5
 11
43.8
 21
1165.5
  0
LINE
  8
0
 10
43.8
 20
1165.5
 11
43.8
 21
1189.72
  0
LINE
  8
0
 10
43.8
 20
1189.72
 11
46.9
 21
1189.72
  0
LINE
  8
0
 10
46.9
 20
1189.72
 11
46.9
 21
1213.95
  0
LINE
  8
0
 10
46.9
 20
1213.95
 11
43.8
 21
1213.95
  0
LINE
  8
0
 10
43.8
 20
1213.95
 11
43.8
 21
1238.18
  0
LINE
  8
0
 10
43.8
 20
1238.18
 11
46.9
 21
1238.18
  0
LINE
  8
0
 10
46.9
 20
1238.18
 11
46.9
 21
1262.4
  0
LINE
  8
0
 10
46.9
 20
1262.4
 11
43.8
 21
1262.4
  0
LINE
  8
0
 10
43.8
 20
1262.4
 11
43.8
 21
1265.5
  0
LINE
  8
0
 10
43.8
 20
1265.5
 11
38.325
 21
1265.5
  0
LINE
  8
0
 10
38.325
 20
1265.5
 11
38.325
 21
1262.4
  0
LINE
  8
0
 10
38.325
 20
1262.4
 11
32.85
 21
1262.4
  0
LINE
  8
0
 10
32.85
 20
1262.4
 11
32.85
 21
1265.5
  0
LINE
  8
0
 10
32.85
 20
1265.5
 11
27.375
 21
1265.5
  0
LINE
  8
0
 10
27.375
 20
1265.5
 11
27.375
 21
1262.4
  0
LINE
  8
0
 10
27.375
 20
1262.4
 11
21.9
 21
1262.4
  0
LINE
  8
0
 10
21.9
 20
1262.4
 11
21.9
 21
1265.5
  0
LINE
  8
0
 10
21.9
 20
1265.5
 11
16.425
 21
1265.5
  0
LINE
  8
0
 10
16.425
 20
1265.5
 11
16.425
 21
1262.4
  0
LINE
  8
0
 10
16.425
 20
1262.4
 11
10.95
 21
1262.4
  0
LINE
  8
0
 10
10.95
 20
1262.4
 11
10.95
 21
1265.5
  0
LINE
  8
0
 10
10.95
 20
1265.5
 11
5.47499
 21
1265.5
  0
LINE
  8
0
 10
5.47499
 20
1265.5
 11
5.47499
 21
1262.4
  0
LINE
  8
0
 10
5.47499
 20
1262.4
 11
-3.09999
 21
1262.4
  0
LINE
  8
0
 10
-3.09999
 20
1262.4
 11
-3.09999
 21
1238.18
  0
LINE
  8
0
 10
-3.09999
 20
1238.18
 11
0
 21
1238.18
  0
LINE
  8
0
 10
0
 20
1238.18
 11
0
 21
1213.95
  0
LINE
  8
0
 10
0
 20
1213.95
 11
-3.09999
 21
1213.95
  0
LINE
  8
0
 10
-3.09999
 20
1213.95
 11
-3.09999
 21
1189.72
  0
LINE
  8
0
 10
-3.09999
 20
1189.72
 11
0
 21
1189.72
  0
LINE
  8
0
 10
0
 20
1189.72
 11
0
 21
1165.5
  0
LINE
  8
0
 10
0
 20
1165.5
 11
-3.09999
 21
1165.5
  0
LINE
  8
0
 10
-3.09999
 20
1165.5
 11
-3.09999
 21
1141.28
  0
LINE
  8
0
 10
-3.09999
 20
1141.28
 11
0
 21
1141.28
  0
LINE
  8
0
 10
0
 20
1141.28
 11
0
 21
1117.05
  0
LINE
  8
0
 10
0
 20
1117.05
 11
-3.09999
 21
1117.05
  0
LINE
  8
0
 10
-3.09999
 20
1117.05
 11
-3.09999
 21
1092.82
  0
LINE
  8
0
 10
-3.09999
 20
1092.82
 11
0
 21
1092.82
  0
LINE
  8
0
 10
0
 20
1092.82
 11
0
 21
1068.6
  0
LINE
  8
0
 10
0
 20
1068.6
 11
5.47499
 21
1068.6
  0
LINE
  8
0
 10
5.47499
 20
1068.6
 11
5.47499
 21
1065.5
  0
LINE
  8
0
 10
5.47499
 20
1065.5
 11
10.95
 21
1065.5
  0
LINE
  8
0
 10
10.95
 20
1065.5
 11
10.95
 21
1068.6
  0
LINE
  8
0
 10
23.45
 20
1017.05
 11
35.175
 21
1017.05
  0
LINE
  8
0
 10
35.175
 20
1017.05
 11
35.175
 21
1013.95
  0
LINE
  8
0
 10
35.175
 20
1013.95
 11
46.9
 21
1013.95
  0
LINE
  8
0
 10
46.9
 20
1013.95
 11
46.9
 21
1017.05
  0
LINE
  8
0
 10
46.9
 20
1017.05
 11
58.625
 21
1017.05
  0
LINE
  8
0
 10
58.625
 20
1017.05
 11
58.625
 21
1013.95
  0
LINE
  8
0
 10
58.625
 20
1013.95
 11
70.35
 21
1013.95
  0
LINE
  8
0
 10
70.35
 20
1013.95
 11
70.35
 21
1017.05
  0
LINE
  8
0
 10
70.35
 20
1017.05
 11
82.075
 21
1017.05
  0
LINE
  8
0
 10
82.075
 20
1017.05
 11
82.075
 21
1013.95
  0
LINE
  8
0
 10
82.075
 20
1013.95
 11
96.9
 21
1013.95
  0
LINE
  8
0
 10
96.9
 20
1013.95
 11
96.9
 21
1022.53
  0
LINE
  8
0
 10
96.9
 20
1022.53
 11
93.8
 21
1022.53
  0
LINE
  8
0
 10
93.8
 20
1022.53
 11
93.8
 21
1028
  0
LINE
  8
0
 10
93.8
 20
1028
 11
96.9
 21
1028
  0
LINE
  8
0
 10
96.9
 20
1028
 11
96.9
 21
1033.47
  0
LINE
  8
0
 10
96.9
 20
1033.47
 11
93.8
 21
1033.47
  0
LINE
  8
0
 10
93.8
 20
1033.47
 11
93.8
 21
1038.95
  0
LINE
  8
0
 10
93.8
 20
1038.95
 11
96.9
 21
1038.95
  0
LINE
  8
0
 10
96.9
 20
1038.95
 11
96.9
 21
1044.43
  0
LINE
  8
0
 10
96.9
 20
1044.43
 11
93.8
 21
1044.43
  0
LINE
  8
0
 10
93.8
 20
1044.43
 11
93.8
 21
1049.9
  0
LINE
  8
0
 10
93.8
 20
1049.9
 11
96.9
 21
1049.9
  0
LINE
  8
0
 10
96.9
 20
1049.9
 11
96.9
 21
1055.38
  0
LINE
  8
0
 10
96.9
 20
1055.38
 11
93.8
 21
1055.38
  0
LINE
  8
0
 10
93.8
 20
1055.38
 11
93.8
 21
1060.85
  0
LINE
  8
0
 10
93.8
 20
1060.85
 11
82.075
 21
1060.85
  0
LINE
  8
0
 10
82.075
 20
1060.85
 11
82.075
 21
1063.95
  0
LINE
  8
0
 10
82.075
 20
1063.95
 11
70.35
 21
1063.95
  0
LINE
  8
0
 10
70.35
 20
1063.95
 11
70.35
 21
1060.85
  0
LINE
  8
0
 10
70.35
 20
1060.85
 11
58.625
 21
1060.85
  0
LINE
  8
0
 10
58.625
 20
1060.85
 11
58.625
 21
1063.95
  0
LINE
  8
0
 10
58.625
 20
1063.95
 11
46.9
 21
1063.95
  0
LINE
  8
0
 10
46.9
 20
1063.95
 11
46.9
 21
1060.85
  0
LINE
  8
0
 10
46.9
 20
1060.85
 11
35.175
 21
1060.85
  0
LINE
  8
0
 10
35.175
 20
1060.85
 11
35.175
 21
1063.95
  0
LINE
  8
0
 10
35.175
 20
1063.95
 11
23.45
 21
1063.95
  0
LINE
  8
0
 10
23.45
 20
1063.95
 11
23.45
 21
1060.85
  0
LINE
  8
0
 10
23.45
 20
1060.85
 11
11.725
 21
1060.85
  0
LINE
  8
0
 10
11.725
 20
1060.85
 11
11.725
 21
1063.95
  0
LINE
  8
0
 10
11.725
 20
1063.95
 11
-3.09999
 21
1063.95
  0
LINE
  8
0
 10
-3.09999
 20
1063.95
 11
-3.09999
 21
1060.85
  0
LINE
  8
0
 10
-3.09999
 20
1060.85
 11
0
 21
1060.85
  0
LINE
  8
0
 10
0
 20
1060.85
 11
0
 21
1055.38
  0
LINE
  8
0
 10
0
 20
1055.38
 11
-3.09999
 21
1055.38
  0
LINE
  8
0
 10
-3.09999
 20
1055.38
 11
-3.09999
 21
1049.9
  0
LINE
  8
0
 10
-3.09999
 20
1049.9
 11
0
 21
1049.9
  0
LINE
  8
0
 10
0
 20
1049.9
 11
0
 21
1044.43
  0
LINE
  8
0
 10
0
 20
1044.43
 11
-3.09999
 21
1044.43
  0
LINE
  8
0
 10
-3.09999
 20
1044.43
 11
-3.09999
 21
1038.95
  0
LINE
  8
0
 10
-3.09999
 20
1038.95
 11
0
 21
1038.95
  0
LINE
  8
0
 10
0
 20
1038.95
 11
0
 21
1033.47
  0
LINE
  8
0
 10
0
 20
1033.47
 11
-3.09999
 21
1033.47
  0
LINE
  8
0
 10
-3.09999
 20
1033.47
 11
-3.09999
 21
1028
  0
LINE
  8
0
 10
-3.09999
 20
1028
 11
0
 21
1028
  0
LINE
  8
0
 10
0
 20
1028
 11
0
 21
1022.53
  0
LINE
  8
0
 10
0
 20
1022.53
 11
-3.09999
 21
1022.53
  0
LINE
  8
0
 10
-3.09999
 20
1022.53
 11
-3.09999
 21
1017.05
  0
LINE
  8
0
 10
-3.09999
 20
1017.05
 11
11.725
 21
1017.05
  0
LINE
  8
0
 10
11.725
 20
1017.05
 11
11.725
 21
1013.95
  0
LINE
  8
0
 10
11.725
 20
1013.95
 11
23.45
 21
1013.95
  0
LINE
  8
0
 10
23.45
 20
1013.95
 11
23.45
 21
1017.05
  0
LINE
  8
0
 10
11.725
 20
965.5
 11
23.45
 21
965.5
  0
LINE
  8
0
 10
23.45
 20
965.5
 11
23.45
 21
962.4
  0
LINE
  8
0
 10
23.45
 20
962.4
 11
35.175
 21
962.4
  0
LINE
  8
0
 10
35.175
 20
962.4
 11
35.175
 21
965.5
  0
LINE
  8
0
 10
35.175
 20
965.5
 11
46.9
 21
965.5
  0
LINE
  8
0
 10
46.9
 20
965.5
 11
46.9
 21
962.4
  0
LINE
  8
0
 10
46.9
 20
962.4
 11
58.625
 21
962.4
  0
LINE
  8
0
 10
58.625
 20
962.4
 11
58.625
 21
965.5
  0
LINE
  8
0
 10
58.625
 20
965.5
 11
70.35
 21
965.5
  0
LINE
  8
0
 10
70.35
 20
965.5
 11
70.35
 21
962.4
  0
LINE
  8
0
 10
70.35
 20
962.4
 11
82.075
 21
962.4
  0
LINE
  8
0
 10
82.075
 20
962.4
 11
82.075
 21
965.5
  0
LINE
  8
0
 10
82.075
 20
965.5
 11
96.9
 21
965.5
  0
LINE
  8
0
 10
96.9
 20
965.5
 11
96.9
 21
970.975
  0
LINE
  8
0
 10
96.9
 20
970.975
 11
93.8
 21
970.975
  0
LINE
  8
0
 10
93.8
 20
970.975
 11
93.8
 21
976.45
  0
LINE
  8
0
 10
93.8
 20
976.45
 11
96.9
 21
976.45
  0
LINE
  8
0
 10
96.9
 20
976.45
 11
96.9
 21
981.925
  0
LINE
  8
0
 10
96.9
 20
981.925
 11
93.8
 21
981.925
  0
LINE
  8
0
 10
93.8
 20
981.925
 11
93.8
 21
987.4
  0
LINE
  8
0
 10
93.8
 20
987.4
 11
96.9
 21
987.4
  0
LINE
  8
0
 10
96.9
 20
987.4
 11
96.9
 21
992.875
  0
LINE
  8
0
 10
96.9
 20
992.875
 11
93.8
 21
992.875
  0
LINE
  8
0
 10
93.8
 20
992.875
 11
93.8
 21
998.35
  0
LINE
  8
0
 10
93.8
 20
998.35
 11
96.9
 21
998.35
  0
LINE
  8
0
 10
96.9
 20
998.35
 11
96.9
 21
1003.83
  0
LINE
  8
0
 10
96.9
 20
1003.83
 11
93.8
 21
1003.83
  0
LINE
  8
0
 10
93.8
 20
1003.83
 11
93.8
 21
1009.3
  0
LINE
  8
0
 10
93.8
 20
1009.3
 11
82.075
 21
1009.3
  0
LINE
  8
0
 10
82.075
 20
1009.3
 11
82.075
 21
1012.4
  0
LINE
  8
0
 10
82.075
 20
1012.4
 11
70.35
 21
1012.4
  0
LINE
  8
0
 10
70.35
 20
1012.4
 11
70.35
 21
1009.3
  0
LINE
  8
0
 10
70.35
 20
1009.3
 11
58.625
 21
1009.3
  0
LINE
  8
0
 10
58.625
 20
1009.3
 11
58.625
 21
1012.4
  0
LINE
  8
0
 10
58.625
 20
1012.4
 11
46.9
 21
1012.4
  0
LINE
  8
0
 10
46.9
 20
1012.4
 11
46.9
 21
1009.3
  0
LINE
  8
0
 10
46.9
 20
1009.3
 11
35.175
 21
1009.3
  0
LINE
  8
0
 10
35.175
 20
1009.3
 11
35.175
 21
1012.4
  0
LINE
  8
0
 10
35.175
 20
1012.4
 11
23.45
 21
1012.4
  0
LINE
  8
0
 10
23.45
 20
1012.4
 11
23.45
 21
1009.3
  0
LINE
  8
0
 10
23.45
 20
1009.3
 11
11.725
 21
1009.3
  0
LINE
  8
0
 10
11.725
 20
1009.3
 11
11.725
 21
1012.4
  0
LINE
  8
0
 10
11.725
 20
1012.4
 11
0
 21
1012.4
  0
LINE
  8
0
 10
0
 20
1012.4
 11
0
 21
1003.83
  0
LINE
  8
0
 10
0
 20
1003.83
 11
-3.09999
 21
1003.83
  0
LINE
  8
0
 10
-3.09999
 20
1003.83
 11
-3.09999
 21
998.35
  0
LINE
  8
0
 10
-3.09999
 20
998.35
 11
0
 21
998.35
  0
LINE
  8
0
 10
0
 20
998.35
 11
0
 21
992.875
  0
LINE
  8
0
 10
0
 20
992.875
 11
-3.09999
 21
992.875
  0
LINE
  8
0
 10
-3.09999
 20
992.875
 11
-3.09999
 21
987.4
  0
LINE
  8
0
 10
-3.09999
 20
987.4
 11
0
 21
987.4
  0
LINE
  8
0
 10
0
 20
987.4
 11
0
 21
981.925
  0
LINE
  8
0
 10
0
 20
981.925
 11
-3.09999
 21
981.925
  0
LINE
  8
0
 10
-3.09999
 20
981.925
 11
-3.09999
 21
976.45
  0
LINE
  8
0
 10
-3.09999
 20
976.45
 11
0
 21
976.45
  0
LINE
  8
0
 10
0
 20
976.45
 11
0
 21
970.975
  0
LINE
  8
0
 10
0
 20
970.975
 11
-3.09999
 21
970.975
  0
LINE
  8
0
 10
-3.09999
 20
970.975
 11
-3.09999
 21
965.5
  0
LINE
  8
0
 10
-3.09999
 20
965.5
 11
0
 21
965.5
  0
LINE
  8
0
 10
0
 20
965.5
 11
0
 21
962.4
  0
LINE
  8
0
 10
0
 20
962.4
 11
11.725
 21
962.4
  0
LINE
  8
0
 10
11.725
 20
962.4
 11
11.725
 21
965.5
  0
LINE
  8
0
 10
0
 20
763.95
 11
11.725
 21
763.95
  0
LINE
  8
0
 10
11.725
 20
763.95
 11
11.725
 21
760.85
  0
LINE
  8
0
 10
11.725
 20
760.85
 11
23.45
 21
760.85
  0
LINE
  8
0
 10
23.45
 20
760.85
 11
23.45
 21
763.95
  0
LINE
  8
0
 10
23.45
 20
763.95
 11
35.175
 21
763.95
  0
LINE
  8
0
 10
35.175
 20
763.95
 11
35.175
 21
760.85
  0
LINE
  8
0
 10
35.175
 20
760.85
 11
46.9
 21
760.85
  0
LINE
  8
0
 10
46.9
 20
760.85
 11
46.9
 21
763.95
  0
LINE
  8
0
 10
46.9
 20
763.95
 11
58.625
 21
763.95
  0
LINE
  8
0
 10
58.625
 20
763.95
 11
58.625
 21
760.85
  0
LINE
  8
0
 10
58.625
 20
760.85
 11
70.35
 21
760.85
  0
LINE
  8
0
 10
70.35
 20
760.85
 11
70.35
 21
763.95
  0
LINE
  8
0
 10
70.35
 20
763.95
 11
82.075
 21
763.95
  0
LINE
  8
0
 10
82.075
 20
763.95
 11
82.075
 21
760.85
  0
LINE
  8
0
 10
82.075
 20
760.85
 11
96.9
 21
760.85
  0
LINE
  8
0
 10
96.9
 20
760.85
 11
96.9
 21
788.175
  0
LINE
  8
0
 10
96.9
 20
788.175
 11
93.8
 21
788.175
  0
LINE
  8
0
 10
93.8
 20
788.175
 11
93.8
 21
812.4
  0
LINE
  8
0
 10
93.8
 20
812.4
 11
96.9
 21
812.4
  0
LINE
  8
0
 10
96.9
 20
812.4
 11
96.9
 21
836.625
  0
LINE
  8
0
 10
96.9
 20
836.625
 11
93.8
 21
836.625
  0
LINE
  8
0
 10
93.8
 20
836.625
 11
93.8
 21
860.85
  0
LINE
  8
0
 10
93.8
 20
860.85
 11
96.9
 21
860.85
  0
LINE
  8
0
 10
96.9
 20
860.85
 11
96.9
 21
885.075
  0
LINE
  8
0
 10
96.9
 20
885.075
 11
93.8
 21
885.075
  0
LINE
  8
0
 10
93.8
 20
885.075
 11
93.8
 21
909.3
  0
LINE
  8
0
 10
93.8
 20
909.3
 11
96.9
 21
909.3
  0
LINE
  8
0
 10
96.9
 20
909.3
 11
96.9
 21
933.525
  0
LINE
  8
0
 10
96.9
 20
933.525
 11
93.8
 21
933.525
  0
LINE
  8
0
 10
93.8
 20
933.525
 11
93.8
 21
960.85
  0
LINE
  8
0
 10
93.8
 20
960.85
 11
82.075
 21
960.85
  0
LINE
  8
0
 10
82.075
 20
960.85
 11
82.075
 21
957.75
  0
LINE
  8
0
 10
82.075
 20
957.75
 11
70.35
 21
957.75
  0
LINE
  8
0
 10
70.35
 20
957.75
 11
70.35
 21
960.85
  0
LINE
  8
0
 10
70.35
 20
960.85
 11
58.625
 21
960.85
  0
LINE
  8
0
 10
58.625
 20
960.85
 11
58.625
 21
957.75
  0
LINE
  8
0
 10
58.625
 20
957.75
 11
46.9
 21
957.75
  0
LINE
  8
0
 10
46.9
 20
957.75
 11
46.9
 21
960.85
  0
LINE
  8
0
 10
46.9
 20
960.85
 11
35.175
 21
960.85
  0
LINE
  8
0
 10
35.175
 20
960.85
 11
35.175
 21
957.75
  0
LINE
  8
0
 10
35.175
 20
957.75
 11
23.45
 21
957.75
  0
LINE
  8
0
 10
23.45
 20
957.75
 11
23.45
 21
960.85
  0
LINE
  8
0
 10
23.45
 20
960.85
 11
11.725
 21
960.85
  0
LINE
  8
0
 10
11.725
 20
960.85
 11
11.725
 21
957.75
  0
LINE
  8
0
 10
11.725
 20
957.75
 11
0
 21
957.75
  0
LINE
  8
0
 10
0
 20
957.75
 11
0
 21
933.525
  0
LINE
  8
0
 10
0
 20
933.525
 11
-3.09999
 21
933.525
  0
LINE
  8
0
 10
-3.09999
 20
933.525
 11
-3.09999
 21
909.3
  0
LINE
  8
0
 10
-3.09999
 20
909.3
 11
0
 21
909.3
  0
LINE
  8
0
 10
0
 20
909.3
 11
0
 21
885.075
  0
LINE
  8
0
 10
0
 20
885.075
 11
-3.09999
 21
885.075
  0
LINE
  8
0
 10
-3.09999
 20
885.075
 11
-3.09999
 21
860.85
  0
LINE
  8
0
 10
-3.09999
 20
860.85
 11
0
 21
860.85
  0
LINE
  8
0
 10
0
 20
860.85
 11
0
 21
836.625
  0
LINE
  8
0
 10
0
 20
836.625
 11
-3.09999
 21
836.625
  0
LINE
  8
0
 10
-3.09999
 20
836.625
 11
-3.09999
 21
812.4
  0
LINE
  8
0
 10
-3.09999
 20
812.4
 11
0
 21
812.4
  0
LINE
  8
0
 10
0
 20
812.4
 11
0
 21
788.175
  0
LINE
  8
0
 10
0
 20
788.175
 11
-3.09999
 21
788.175
  0
LINE
  8
0
 10
-3.09999
 20
788.175
 11
-3.09999
 21
760.85
  0
LINE
  8
0
 10
-3.09999
 20
760.85
 11
0
 21
760.85
  0
LINE
  8
0
 10
0
 20
760.85
 11
0
 21
763.95
  0
LINE
  8
0
 10
47.3868
 20
839.087
 11
44.8022
 21
839.496
  0
LINE
  8
0
 10
44.8022
 20
839.496
 11
42.2746
 21
840.174
  0
LINE
  8
0
 10
42.2746
 20
840.174
 11
39.8316
 21
841.111
  0
LINE
  8
0
 10
39.8316
 20
841.111
 11
37.5
 21
842.299
  0
LINE
  8
0
 10
37.5
 20
842.299
 11
35.3054
 21
843.725
  0
LINE
  8
0
 10
35.3054
 20
843.725
 11
33.2717
 21
845.371
  0
LINE
  8
0
 10
33.2717
 20
845.371
 11
31.4214
 21
847.222
  0
LINE
  8
0
 10
31.4214
 20
847.222
 11
29.7746
 21
849.255
  0
LINE
  8
0
 10
29.7746
 20
849.255
 11
28.3494
 21
851.45
  0
LINE
  8
0
 10
28.3494
 20
851.45
 11
27.1614
 21
853.782
  0
LINE
  8
0
 10
27.1614
 20
853.782
 11
26.2236
 21
856.225
  0
LINE
  8
0
 10
26.2236
 20
856.225
 11
25.5463
 21
858.752
  0
LINE
  8
0
 10
25.5463
 20
858.752
 11
25.1369
 21
861.337
  0
LINE
  8
0
 10
25.1369
 20
861.337
 11
25
 21
863.95
  0
LINE
  8
0
 10
25
 20
863.95
 11
25.1369
 21
866.563
  0
LINE
  8
0
 10
25.1369
 20
866.563
 11
25.5463
 21
869.148
  0
LINE
  8
0
 10
25.5463
 20
869.148
 11
26.2236
 21
871.675
  0
LINE
  8
0
 10
26.2236
 20
871.675
 11
27.1614
 21
874.118
  0
LINE
  8
0
 10
27.1614
 20
874.118
 11
28.3494
 21
876.45
  0
LINE
  8
0
 10
28.3494
 20
876.45
 11
29.7746
 21
878.645
  0
LINE
  8
0
 10
29.7746
 20
878.645
 11
31.4214
 21
880.678
  0
LINE
  8
0
 10
31.4214
 20
880.678
 11
33.2717
 21
882.529
  0
LINE
  8
0
 10
33.2717
 20
882.529
 11
35.3054
 21
884.175
  0
LINE
  8
0
 10
35.3054
 20
884.175
 11
37.5
 21
885.601
  0
LINE
  8
0
 10
37.5
 20
885.601
 11
39.8316
 21
886.789
  0
LINE
  8
0
 10
39.8316
 20
886.789
 11
42.2746
 21
887.726
  0
LINE
  8
0
 10
42.2746
 20
887.726
 11
44.8022
 21
888.404
  0
LINE
  8
0
 10
44.8022
 20
888.404
 11
47.3868
 21
888.813
  0
LINE
  8
0
 10
47.3868
 20
888.813
 11
50
 21
888.95
  0
LINE
  8
0
 10
50
 20
888.95
 11
52.6132
 21
888.813
  0
LINE
  8
0
 10
52.6132
 20
888.813
 11
55.1978
 21
888.404
  0
LINE
  8
0
 10
55.1978
 20
888.404
 11
57.7254
 21
887.726
  0
LINE
  8
0
 10
57.7254
 20
887.726
 11
60.1684
 21
886.789
  0
LINE
  8
0
 10
60.1684
 20
886.789
 11
62.5
 21
885.601
  0
LINE
  8
0
 10
62.5
 20
885.601
 11
64.6946
 21
884.175
  0
LINE
  8
0
 10
64.6946
 20
884.175
 11
66.7283
 21
882.529
  0
LINE
  8
0
 10
66.7283
 20
882.529
 11
68.5786
 21
880.678
  0
LINE
  8
0
 10
68.5786
 20
880.678
 11
70.2254
 21
878.645
  0
LINE
  8
0
 10
70.2254
 20
878.645
 11
71.6506
 21
876.45
  0
LINE
  8
0
 10
71.6506
 20
876.45
 11
72.8386
 21
874.118
  0
LINE
  8
0
 10
72.8386
 20
874.118
 11
73.7764
 21
871.675
  0
LINE
  8
0
 10
73.7764
 20
871.675
 11
74.4537
 21
869.148
  0
LINE
  8
0
 10
74.4537
 20
869.148
 11
74.863
 21
866.563
  0
LINE
  8
0
 10
74.863
 20
866.563
 11
75
 21
863.95
  0
LINE
  8
0
 10
75
 20
863.95
 11
74.863
 21
861.337
  0
LINE
  8
0
 10
74.863
 20
861.337
 11
74.4537
 21
858.752
  0
LINE
  8
0
 10
74.4537
 20
858.752
 11
73.7764
 21
856.225
  0
LINE
  8
0
 10
73.7764
 20
856.225
 11
72.8386
 21
853.782
  0
LINE
  8
0
 10
72.8386
 20
853.782
 11
71.6506
 21
851.45
  0
LINE
  8
0
 10
71.6506
 20
851.45
 11
70.2254
 21
849.255
  0
LINE
  8
0
 10
70.2254
 20
849.255
 11
68.5786
 21
847.222
  0
LINE
  8
0
 10
68.5786
 20
847.222
 11
66.7283
 21
845.371
  0
LINE
  8
0
 10
66.7283
 20
845.371
 11
64.6946
 21
843.725
  0
LINE
  8
0
 10
64.6946
 20
843.725
 11
62.5
 21
842.299
  0
LINE
  8
0
 10
62.5
 20
842.299
 11
60.1684
 21
841.111
  0
LINE
  8
0
 10
60.1684
 20
841.111
 11
57.7254
 21
840.174
  0
LINE
  8
0
 10
57.7254
 20
840.174
 11
55.1978
 21
839.496
  0
LINE
  8
0
 10
55.1978
 20
839.496
 11
52.6132
 21
839.087
  0
LINE
  8
0
 10
52.6132
 20
839.087
 11
50
 21
838.95
  0
LINE
  8
0
 10
50
 20
838.95
 11
47.3868
 21
839.087
  0
LINE
  8
0
 10
0
 20
562.4
 11
11.725
 21
562.4
  0
LINE
  8
0
 10
11.725
 20
562.4
 11
11.725
 21
559.3
  0
LINE
  8
0
 10
11.725
 20
559.3
 11
23.45
 21
559.3
  0
LINE
  8
0
 10
23.45
 20
559.3
 11
23.45
 21
562.4
  0
LINE
  8
0
 10
23.45
 20
562.4
 11
35.175
 21
562.4
  0
LINE
  8
0
 10
35.175
 20
562.4
 11
35.175
 21
559.3
  0
LINE
  8
0
 10
35.175
 20
559.3
 11
46.9
 21
559.3
  0
LINE
  8
0
 10
46.9
 20
559.3
 11
46.9
 21
562.4
  0
LINE
  8
0
 10
46.9
 20
562.4
 11
58.625
 21
562.4
  0
LINE
  8
0
 10
58.625
 20
562.4
 11
58.625
 21
559.3
  0
LINE
  8
0
 10
58.625
 20
559.3
 11
70.35
 21
559.3
  0
LINE
  8
0
 10
70.35
 20
559.3
 11
70.35
 21
562.4
  0
LINE
  8
0
 10
70.35
 20
562.4
 11
82.075
 21
562.4
  0
LINE
  8
0
 10
82.075
 20
562.4
 11
82.075
 21
559.3
  0
LINE
  8
0
 10
82.075
 20
559.3
 11
96.9
 21
559.3
  0
LINE
  8
0
 10
96.9
 20
559.3
 11
96.9
 21
586.625
  0
LINE
  8
0
 10
96.9
 20
586.625
 11
93.8
 21
586.625
  0
LINE
  8
0
 10
93.8
 20
586.625
 11
93.8
 21
610.85
  0
LINE
  8
0
 10
93.8
 20
610.85
 11
96.9
 21
610.85
  0
LINE
  8
0
 10
96.9
 20
610.85
 11
96.9
 21
635.075
  0
LINE
  8
0
 10
96.9
 20
635.075
 11
93.8
 21
635.075
  0
LINE
  8
0
 10
93.8
 20
635.075
 11
93.8
 21
659.3
  0
LINE
  8
0
 10
93.8
 20
659.3
 11
96.9
 21
659.3
  0
LINE
  8
0
 10
96.9
 20
659.3
 11
96.9
 21
683.525
  0
LINE
  8
0
 10
96.9
 20
683.525
 11
93.8
 21
683.525
  0
LINE
  8
0
 10
93.8
 20
683.525
 11
93.8
 21
707.75
  0
LINE
  8
0
 10
93.8
 20
707.75
 11
96.9
 21
707.75
  0
LINE
  8
0
 10
96.9
 20
707.75
 11
96.9
 21
731.975
  0
LINE
  8
0
 10
96.9
 20
731.975
 11
93.8
 21
731.975
  0
LINE
  8
0
 10
93.8
 20
731.975
 11
93.8
 21
756.2
  0
LINE
  8
0
 10
93.8
 20
756.2
 11
82.075
 21
756.2
  0
LINE
  8
0
 10
82.075
 20
756.2
 11
82.075
 21
759.3
  0
LINE
  8
0
 10
82.075
 20
759.3
 11
70.35
 21
759.3
  0
LINE
  8
0
 10
70.35
 20
759.3
 11
70.35
 21
756.2
  0
LINE
  8
0
 10
70.35
 20
756.2
 11
58.625
 21
756.2
  0
LINE
  8
0
 10
58.625
 20
756.2
 11
58.625
 21
759.3
  0
LINE
  8
0
 10
58.625
 20
759.3
 11
46.9
 21
759.3
  0
LINE
  8
0
 10
46.9
 20
759.3
 11
46.9
 21
756.2
  0
LINE
  8
0
 10
46.9
 20
756.2
 11
35.175
 21
756.2
  0
LINE
  8
0
 10
35.175
 20
756.2
 11
35.175
 21
759.3
  0
LINE
  8
0
 10
35.175
 20
759.3
 11
23.45
 21
759.3
  0
LINE
  8
0
 10
23.45
 20
759.3
 11
23.45
 21
756.2
  0
LINE
  8
0
 10
23.45
 20
756.2
 11
11.725
 21
756.2
  0
LINE
  8
0
 10
11.725
 20
756.2
 11
11.725
 21
759.3
  0
LINE
  8
0
 10
11.725
 20
759.3
 11
-3.09999
 21
759.3
  0
LINE
  8
0
 10
-3.09999
 20
759.3
 11
-3.09999
 21
756.2
  0
LINE
  8
0
 10
-3.09999
 20
756.2
 11
0
 21
756.2
  0
LINE
  8
0
 10
0
 20
756.2
 11
0
 21
731.975
  0
LINE
  8
0
 10
0
 20
731.975
 11
-3.09999
 21
731.975
  0
LINE
  8
0
 10
-3.09999
 20
731.975
 11
-3.09999
 21
707.75
  0
LINE
  8
0
 10
-3.09999
 20
707.75
 11
0
 21
707.75
  0
LINE
  8
0
 10
0
 20
707.75
 11
0
 21
683.525
  0
LINE
  8
0
 10
0
 20
683.525
 11
-3.09999
 21
683.525
  0
LINE
  8
0
 10
-3.09999
 20
683.525
 11
-3.09999
 21
659.3
  0
LINE
  8
0
 10
-3.09999
 20
659.3
 11
0
 21
659.3
  0
LINE
  8
0
 10
0
 20
659.3
 11
0
 21
635.075
  0
LINE
  8
0
 10
0
 20
635.075
 11
-3.09999
 21
635.075
  0
LINE
  8
0
 10
-3.09999
 20
635.075
 11
-3.09999
 21
610.85
  0
LINE
  8
0
 10
-3.09999
 20
610.85
 11
0
 21
610.85
  0
LINE
  8
0
 10
0
 20
610.85
 11
0
 21
586.625
  0
LINE
  8
0
 10
0
 20
586.625
 11
-3.09999
 21
586.625
  0
LINE
  8
0
 10
-3.09999
 20
586.625
 11
-3.09999
 21
559.3
  0
LINE
  8
0
 10
-3.09999
 20
559.3
 11
0
 21
559.3
  0
LINE
  8
0
 10
0
 20
559.3
 11
0
 21
562.4
  0
LINE
  8
0
 10
54.65
 20
750
 11
54.65
 21
753.1
  0
LINE
  8
0
 10
54.65
 20
753.1
 11
63.95
 21
753.1
  0
LINE
  8
0
 10
63.95
 20
753.1
 11
63.95
 21
750
  0
LINE
  8
0
 10
63.95
 20
750
 11
54.65
 21
750
  0
LINE
  8
0
 10
48.45
 20
750
 11
48.45
 21
753.1
  0
LINE
  8
0
 10
48.45
 20
753.1
 11
51.55
 21
753.1
  0
LINE
  8
0
 10
51.55
 20
753.1
 11
51.55
 21
750
  0
LINE
  8
0
 10
51.55
 20
750
 11
48.45
 21
750
  0
LINE
  8
0
 10
36.05
 20
750
 11
36.05
 21
753.1
  0
LINE
  8
0
 10
36.05
 20
753.1
 11
45.35
 21
753.1
  0
LINE
  8
0
 10
45.35
 20
753.1
 11
45.35
 21
750
  0
LINE
  8
0
 10
45.35
 20
750
 11
36.05
 21
750
  0
LINE
  8
0
 10
54.65
 20
565.5
 11
54.65
 21
568.6
  0
LINE
  8
0
 10
54.65
 20
568.6
 11
63.95
 21
568.6
  0
LINE
  8
0
 10
63.95
 20
568.6
 11
63.95
 21
565.5
  0
LINE
  8
0
 10
63.95
 20
565.5
 11
54.65
 21
565.5
  0
LINE
  8
0
 10
48.45
 20
565.5
 11
48.45
 21
568.6
  0
LINE
  8
0
 10
48.45
 20
568.6
 11
51.55
 21
568.6
  0
LINE
  8
0
 10
51.55
 20
568.6
 11
51.55
 21
565.5
  0
LINE
  8
0
 10
51.55
 20
565.5
 11
48.45
 21
565.5
  0
LINE
  8
0
 10
36.05
 20
565.5
 11
36.05
 21
568.6
  0
LINE
  8
0
 10
36.05
 20
568.6
 11
45.35
 21
568.6
  0
LINE
  8
0
 10
45.35
 20
568.6
 11
45.35
 21
565.5
  0
LINE
  8
0
 10
45.35
 20
565.5
 11
36.05
 21
565.5
  0
LINE
  8
0
 10
37.5
 20
360.85
 11
23.4
 21
360.85
  0
LINE
  8
0
 10
23.4
 20
360.85
 11
23.4
 21
363.95
  0
LINE
  8
0
 10
23.4
 20
363.95
 11
37.5
 21
363.95
  0
LINE
  8
0
 10
37.5
 20
363.95
 11
37.5
 21
545.35
  0
LINE
  8
0
 10
37.5
 20
545.35
 11
23.4
 21
545.35
  0
LINE
  8
0
 10
23.4
 20
545.35
 11
23.4
 21
548.45
  0
LINE
  8
0
 10
23.4
 20
548.45
 11
37.5
 21
548.45
  0
LINE
  8
0
 10
37.5
 20
548.45
 11
37.5
 21
554.65
  0
LINE
  8
0
 10
37.5
 20
554.65
 11
0
 21
554.65
  0
LINE
  8
0
 10
0
 20
554.65
 11
0
 21
548.45
  0
LINE
  8
0
 10
0
 20
548.45
 11
14.1
 21
548.45
  0
LINE
  8
0
 10
14.1
 20
548.45
 11
14.1
 21
545.35
  0
LINE
  8
0
 10
14.1
 20
545.35
 11
0
 21
545.35
  0
LINE
  8
0
 10
0
 20
545.35
 11
0
 21
363.95
  0
LINE
  8
0
 10
0
 20
363.95
 11
14.1
 21
363.95
  0
LINE
  8
0
 10
14.1
 20
363.95
 11
14.1
 21
360.85
  0
LINE
  8
0
 10
14.1
 20
360.85
 11
0
 21
360.85
  0
LINE
  8
0
 10
0
 20
360.85
 11
0
 21
354.65
  0
LINE
  8
0
 10
0
 20
354.65
 11
37.5
 21
354.65
  0
LINE
  8
0
 10
37.5
 20
354.65
 11
37.5
 21
360.85
  0
LINE
  8
0
 10
26.55
 20
162.4
 11
26.55
 21
165.5
  0
LINE
  8
0
 10
26.55
 20
165.5
 11
73.45
 21
165.5
  0
LINE
  8
0
 10
73.45
 20
165.5
 11
73.45
 21
162.4
  0
LINE
  8
0
 10
73.45
 20
162.4
 11
76.55
 21
162.4
  0
LINE
  8
0
 10
76.55
 20
162.4
 11
76.55
 21
165.5
  0
LINE
  8
0
 10
76.55
 20
165.5
 11
100
 21
165.5
  0
LINE
  8
0
 10
100
 20
165.5
 11
100
 21
346.9
  0
LINE
  8
0
 10
100
 20
346.9
 11
76.55
 21
346.9
  0
LINE
  8
0
 10
76.55
 20
346.9
 11
76.55
 21
350
  0
LINE
  8
0
 10
76.55
 20
350
 11
73.45
 21
350
  0
LINE
  8
0
 10
73.45
 20
350
 11
73.45
 21
346.9
  0
LINE
  8
0
 10
73.45
 20
346.9
 11
26.55
 21
346.9
  0
LINE
  8
0
 10
26.55
 20
346.9
 11
26.55
 21
350
  0
LINE
  8
0
 10
26.55
 20
350
 11
23.45
 21
350
  0
LINE
  8
0
 10
23.45
 20
350
 11
23.45
 21
346.9
  0
LINE
  8
0
 10
23.45
 20
346.9
 11
0
 21
346.9
  0
LINE
  8
0
 10
0
 20
346.9
 11
0
 21
165.5
  0
LINE
  8
0
 10
0
 20
165.5
 11
23.45
 21
165.5
  0
LINE
  8
0
 10
23.45
 20
165.5
 11
23.45
 21
162.4
  0
LINE
  8
0
 10
23.45
 20
162.4
 11
26.55
 21
162.4
  0
LINE
  8
0
 10
100
 20
157.75
 11
63.95
 21
157.75
  0
LINE
  8
0
 10
63.95
 20
157.75
 11
63.95
 21
160.85
  0
LINE
  8
0
 10
63.95
 20
160.85
 11
54.65
 21
160.85
  0
LINE
  8
0
 10
54.65
 20
160.85
 11
54.65
 21
157.75
  0
LINE
  8
0
 10
54.65
 20
157.75
 11
51.55
 21
157.75
  0
LINE
  8
0
 10
51.55
 20
157.75
 11
51.55
 21
154.65
  0
LINE
  8
0
 10
51.55
 20
154.65
 11
54.65
 21
154.65
  0
LINE
  8
0
 10
54.65
 20
154.65
 11
54.65
 21
151.55
  0
LINE
  8
0
 10
54.65
 20
151.55
 11
51.55
 21
151.55
  0
LINE
  8
0
 10
51.55
 20
151.55
 11
51.55
 21
148.45
  0
LINE
  8
0
 10
51.55
 20
148.45
 11
48.45
 21
148.45
  0
LINE
  8
0
 10
48.45
 20
148.45
 11
48.45
 21
151.55
  0
LINE
  8
0
 10
48.45
 20
151.55
 11
45.35
 21
151.55
  0
LINE
  8
0
 10
45.35
 20
151.55
 11
45.35
 21
154.65
  0
LINE
  8
0
 10
45.35
 20
154.65
 11
48.45
 21
154.65
  0
LINE
  8
0
 10
48.45
 20
154.65
 11
48.45
 21
157.75
  0
LINE
  8
0
 10
48.45
 20
157.75
 11
45.35
 21
157.75
  0
LINE
  8
0
 10
45.35
 20
157.75
 11
45.35
 21
160.85
  0
LINE
  8
0
 10
45.35
 20
160.85
 11
36.05
 21
160.85
  0
LINE
  8
0
 10
36.05
 20
160.85
 11
36.05
 21
157.75
  0
LINE
  8
0
 10
36.05
 20
157.75
 11
0
 21
157.75
  0
LINE
  8
0
 10
0
 20
157.75
 11
0
 21
82.75
  0
LINE
  8
0
 10
0
 20
82.75
 11
100
 21
82.75
  0
LINE
  8
0
 10
100
 20
82.75
 11
100
 21
157.75
  0
LINE
  8
0
 10
23.45
 20
120.25
 11
23.45
 21
123.35
  0
LINE
  8
0
 10
23.45
 20
123.35
 11
26.55
 21
123.35
  0
LINE
  8
0
 10
26.55
 20
123.35
 11
26.55
 21
120.25
  0
LINE
  8
0
 10
26.55
 20
120.25
 11
23.45
 21
120.25
  0
LINE
  8
0
 10
73.45
 20
120.25
 11
73.45
 21
123.35
  0
LINE
  8
0
 10
73.45
 20
123.35
 11
76.55
 21
123.35
  0
LINE
  8
0
 10
76.55
 20
123.35
 11
76.55
 21
120.25
  0
LINE
  8
0
 10
76.55
 20
120.25
 11
73.45
 21
120.25
  0
LINE
  8
0
 10
49.4876
 20
96.6253
 11
48.9809
 21
96.7056
  0
LINE
  8
0
 10
48.9809
 20
96.7056
 11
48.4853
 21
96.8384
  0
LINE
  8
0
 10
48.4853
 20
96.8384
 11
48.0064
 21
97.0222
  0
LINE
  8
0
 10
48.0064
 20
97.0222
 11
47.5492
 21
97.2551
  0
LINE
  8
0
 10
47.5492
 20
97.2551
 11
47.1189
 21
97.5346
  0
LINE
  8
0
 10
47.1189
 20
97.5346
 11
46.7202
 21
97.8575
  0
LINE
  8
0
 10
46.7202
 20
97.8575
 11
46.3575
 21
98.2202
  0
LINE
  8
0
 10
46.3575
 20
98.2202
 11
46.0346
 21
98.6189
  0
LINE
  8
0
 10
46.0346
 20
98.6189
 11
45.7551
 21
99.0492
  0
LINE
  8
0
 10
45.7551
 20
99.0492
 11
45.5222
 21
99.5064
  0
LINE
  8
0
 10
45.5222
 20
99.5064
 11
45.3519
 21
99.95
  0
LINE
  8
0
 10
45.3519
 20
99.95
 11
31.25
 21
99.95
  0
LINE
  8
0
 10
31.25
 20
99.95
 11
31.25
 21
103.05
  0
LINE
  8
0
 10
31.25
 20
103.05
 11
48.45
 21
103.05
  0
LINE
  8
0
 10
48.45
 20
103.05
 11
48.45
 21
106.148
  0
LINE
  8
0
 10
48.45
 20
106.148
 11
48.4853
 21
106.162
  0
LINE
  8
0
 10
48.4853
 20
106.162
 11
48.9809
 21
106.294
  0
LINE
  8
0
 10
48.9809
 20
106.294
 11
49.4876
 21
106.375
  0
LINE
  8
0
 10
49.4876
 20
106.375
 11
50
 21
106.402
  0
LINE
  8
0
 10
50
 20
106.402
 11
50.5123
 21
106.375
  0
LINE
  8
0
 10
50.5123
 20
106.375
 11
51.0191
 21
106.294
  0
LINE
  8
0
 10
51.0191
 20
106.294
 11
51.5146
 21
106.162
  0
LINE
  8
0
 10
51.5146
 20
106.162
 11
51.9936
 21
105.978
  0
LINE
  8
0
 10
51.9936
 20
105.978
 11
52.4508
 21
105.745
  0
LINE
  8
0
 10
52.4508
 20
105.745
 11
52.881
 21
105.465
  0
LINE
  8
0
 10
52.881
 20
105.465
 11
53.2798
 21
105.143
  0
LINE
  8
0
 10
53.2798
 20
105.143
 11
53.6425
 21
104.78
  0
LINE
  8
0
 10
53.6425
 20
104.78
 11
53.9654
 21
104.381
  0
LINE
  8
0
 10
53.9654
 20
104.381
 11
54.2448
 21
103.951
  0
LINE
  8
0
 10
54.2448
 20
103.951
 11
54.4778
 21
103.494
  0
LINE
  8
0
 10
54.4778
 20
103.494
 11
54.6481
 21
103.05
  0
LINE
  8
0
 10
54.6481
 20
103.05
 11
68.75
 21
103.05
  0
LINE
  8
0
 10
68.75
 20
103.05
 11
68.75
 21
99.95
  0
LINE
  8
0
 10
68.75
 20
99.95
 11
51.55
 21
99.95
  0
LINE
  8
0
 10
51.55
 20
99.95
 11
51.55
 21
96.8519
  0
LINE
  8
0
 10
51.55
 20
96.8519
 11
51.5146
 21
96.8384
  0
LINE
  8
0
 10
51.5146
 20
96.8384
 11
51.0191
 21
96.7056
  0
LINE
  8
0
 10
51.0191
 20
96.7056
 11
50.5123
 21
96.6253
  0
LINE
  8
0
 10
50.5123
 20
96.6253
 11
50
 21
96.5985
  0
LINE
  8
0
 10
50
 20
96.5985
 11
49.4876
 21
96.6253
  0
LINE
  8
0
 10
100
 20
75
 11
63.95
 21
75
  0
LINE
  8
0
 10
63.95
 20
75
 11
63.95
 21
78.1
  0
LINE
  8
0
 10
63.95
 20
78.1
 11
54.65
 21
78.1
  0
LINE
  8
0
 10
54.65
 20
78.1
 11
54.65
 21
75
  0
LINE
  8
0
 10
54.65
 20
75
 11
51.55
 21
75
  0
LINE
  8
0
 10
51.55
 20
75
 11
51.55
 21
71.9
  0
LINE
  8
0
 10
51.55
 20
71.9
 11
54.65
 21
71.9
  0
LINE
  8
0
 10
54.65
 20
71.9
 11
54.65
 21
68.8
  0
LINE
  8
0
 10
54.65
 20
68.8
 11
51.55
 21
68.8
  0
LINE
  8
0
 10
51.55
 20
68.8
 11
51.55
 21
65.7
  0
LINE
  8
0
 10
51.55
 20
65.7
 11
48.45
 21
65.7
  0
LINE
  8
0
 10
48.45
 20
65.7
 11
48.45
 21
68.8
  0
LINE
  8
0
 10
48.45
 20
68.8
 11
45.35
 21
68.8
  0
LINE
  8
0
 10
45.35
 20
68.8
 11
45.35
 21
71.9
  0
LINE
  8
0
 10
45.35
 20
71.9
 11
48.45
 21
71.9
  0
LINE
  8
0
 10
48.45
 20
71.9
 11
48.45
 21
75
  0
LINE
  8
0
 10
48.45
 20
75
 11
45.35
 21
75
  0
LINE
  8
0
 10
45.35
 20
75
 11
45.35
 21
78.1
  0
LINE
  8
0
 10
45.35
 20
78.1
 11
36.05
 21
78.1
  0
LINE
  8
0
 10
36.05
 20
78.1
 11
36.05
 21
75
  0
LINE
  8
0
 10
36.05
 20
75
 11
0
 21
75
  0
LINE
  8
0
 10
0
 20
75
 11
0
 21
0
  0
LINE
  8
0
 10
0
 20
0
 11
100
 21
0
  0
LINE
  8
0
 10
100
 20
0
 11
100
 21
75
  0
LINE
  8
0
 10
73.45
 20
37.5
 11
73.45
 21
40.6
  0
LINE
  8
0
 10
73.45
 20
40.6
 11
76.55
 21
40.6
  0
LINE
  8
0
 10
76.55
 20
40.6
 11
76.55
 21
37.5
  0
LINE
  8
0
 10
76.55
 20
37.5
 11
73.45
 21
37.5
  0
LINE
  8
0
 10
23.45
 20
37.5
 11
23.45
 21
40.6
  0
LINE
  8
0
 10
23.45
 20
40.6
 11
26.55
 21
40.6
  0
LINE
  8
0
 10
26.55
 20
40.6
 11
26.55
 21
37.5
  0
LINE
  8
0
 10
26.55
 20
37.5
 11
23.45
 21
37.5
  0
LINE
  8
0
 10
49.4876
 20
13.8753
 11
48.9809
 21
13.9556
  0
LINE
  8
0
 10
48.9809
 20
13.9556
 11
48.4853
 21
14.0884
  0
LINE
  8
0
 10
48.4853
 20
14.0884
 11
48.0064
 21
14.2722
  0
LINE
  8
0
 10
48.0064
 20
14.2722
 11
47.5492
 21
14.5051
  0
LINE
  8
0
 10
47.5492
 20
14.5051
 11
47.1189
 21
14.7846
  0
LINE
  8
0
 10
47.1189
 20
14.7846
 11
46.7202
 21
15.1075
  0
LINE
  8
0
 10
46.7202
 20
15.1075
 11
46.3575
 21
15.4702
  0
LINE
  8
0
 10
46.3575
 20
15.4702
 11
46.0346
 21
15.8689
  0
LINE
  8
0
 10
46.0346
 20
15.8689
 11
45.7551
 21
16.2992
  0
LINE
  8
0
 10
45.7551
 20
16.2992
 11
45.5222
 21
16.7564
  0
LINE
  8
0
 10
45.5222
 20
16.7564
 11
45.3519
 21
17.2
  0
LINE
  8
0
 10
45.3519
 20
17.2
 11
31.25
 21
17.2
  0
LINE
  8
0
 10
31.25
 20
17.2
 11
31.25
 21
20.3
  0
LINE
  8
0
 10
31.25
 20
20.3
 11
48.45
 21
20.3
  0
LINE
  8
0
 10
48.45
 20
20.3
 11
48.45
 21
23.3981
  0
LINE
  8
0
 10
48.45
 20
23.3981
 11
48.4853
 21
23.4116
  0
LINE
  8
0
 10
48.4853
 20
23.4116
 11
48.9809
 21
23.5444
  0
LINE
  8
0
 10
48.9809
 20
23.5444
 11
49.4876
 21
23.6247
  0
LINE
  8
0
 10
49.4876
 20
23.6247
 11
50
 21
23.6515
  0
LINE
  8
0
 10
50
 20
23.6515
 11
50.5123
 21
23.6247
  0
LINE
  8
0
 10
50.5123
 20
23.6247
 11
51.0191
 21
23.5444
  0
LINE
  8
0
 10
51.0191
 20
23.5444
 11
51.5146
 21
23.4116
  0
LINE
  8
0
 10
51.5146
 20
23.4116
 11
51.9936
 21
23.2278
  0
LINE
  8
0
 10
51.9936
 20
23.2278
 11
52.4508
 21
22.9948
  0
LINE
  8
0
 10
52.4508
 20
22.9948
 11
52.881
 21
22.7154
  0
LINE
  8
0
 10
52.881
 20
22.7154
 11
53.2798
 21
22.3925
  0
LINE
  8
0
 10
53.2798
 20
22.3925
 11
53.6425
 21
22.0298
  0
LINE
  8
0
 10
53.6425
 20
22.0298
 11
53.9654
 21
21.631
  0
LINE
  8
0
 10
53.9654
 20
21.631
 11
54.2448
 21
21.2008
  0
LINE
  8
0
 10
54.2448
 20
21.2008
 11
54.4778
 21
20.7436
  0
LINE
  8
0
 10
54.4778
 20
20.7436
 11
54.6481
 21
20.3
  0
LINE
  8
0
 10
54.6481
 20
20.3
 11
68.75
 21
20.3
  0
LINE
  8
0
 10
68.75
 20
20.3
 11
68.75
 21
17.2
  0
LINE
  8
0
 10
68.75
 20
17.2
 11
51.55
 21
17.2
  0
LINE
  8
0
 10
51.55
 20
17.2
 11
51.55
 21
14.1019
  0
LINE
  8
0
 10
51.55
 20
14.1019
 11
51.5146
 21
14.0884
  0
LINE
  8
0
 10
51.5146
 20
14.0884
 11
51.0191
 21
13.9556
  0
LINE
  8
0
 10
51.0191
 20
13.9556
 11
50.5123
 21
13.8753
  0
LINE
  8
0
 10
50.5123
 20
13.8753
 11
50
 21
13.8485
  0
LINE
  8
0
 10
50
 20
13.8485
 11
49.4876
 21
13.8753
  0
ENDSEC
  0
SECTION
  2
OBJECTS
  0
DICTIONARY
  0
ENDSEC
  0
EOF
