  0
SECTION
  2
BLOCKS
  0
ENDSEC
  0
SECTION
  2
ENTITIES
  0
LINE
  8
0
 10
21.9
 20
1270.15
 11
32.85
 21
1270.15
  0
LINE
  8
0
 10
32.85
 20
1270.15
 11
32.85
 21
1267.05
  0
LINE
  8
0
 10
32.85
 20
1267.05
 11
43.8
 21
1267.05
  0
LINE
  8
0
 10
43.8
 20
1267.05
 11
43.8
 21
1318.6
  0
LINE
  8
0
 10
43.8
 20
1318.6
 11
46.9
 21
1318.6
  0
LINE
  8
0
 10
46.9
 20
1318.6
 11
46.9
 21
1367.05
  0
LINE
  8
0
 10
46.9
 20
1367.05
 11
43.8
 21
1367.05
  0
LINE
  8
0
 10
43.8
 20
1367.05
 11
43.8
 21
1415.5
  0
LINE
  8
0
 10
43.8
 20
1415.5
 11
46.9
 21
1415.5
  0
LINE
  8
0
 10
46.9
 20
1415.5
 11
46.9
 21
1467.05
  0
LINE
  8
0
 10
46.9
 20
1467.05
 11
32.85
 21
1467.05
  0
LINE
  8
0
 10
32.85
 20
1467.05
 11
32.85
 21
1463.95
  0
LINE
  8
0
 10
32.85
 20
1463.95
 11
21.9
 21
1463.95
  0
LINE
  8
0
 10
21.9
 20
1463.95
 11
21.9
 21
1467.05
  0
LINE
  8
0
 10
21.9
 20
1467.05
 11
10.95
 21
1467.05
  0
LINE
  8
0
 10
10.95
 20
1467.05
 11
10.95
 21
1463.95
  0
LINE
  8
0
 10
10.95
 20
1463.95
 11
-3.09999
 21
1463.95
  0
LINE
  8
0
 10
-3.09999
 20
1463.95
 11
-3.09999
 21
1415.5
  0
LINE
  8
0
 10
-3.09999
 20
1415.5
 11
0
 21
1415.5
  0
LINE
  8
0
 10
0
 20
1415.5
 11
0
 21
1367.05
  0
LINE
  8
0
 10
0
 20
1367.05
 11
-3.09999
 21
1367.05
  0
LINE
  8
0
 10
-3.09999
 20
1367.05
 11
-3.09999
 21
1318.6
  0
LINE
  8
0
 10
-3.09999
 20
1318.6
 11
0
 21
1318.6
  0
LINE
  8
0
 10
0
 20
1318.6
 11
0
 21
1270.15
  0
LINE
  8
0
 10
0
 20
1270.15
 11
10.95
 21
1270.15
  0
LINE
  8
0
 10
10.95
 20
1270.15
 11
10.95
 21
1267.05
  0
LINE
  8
0
 10
10.95
 20
1267.05
 11
21.9
 21
1267.05
  0
LINE
  8
0
 10
21.9
 20
1267.05
 11
21.9
 21
1270.15
  0
LINE
  8
0
 10
21.9
 20
1068.6
 11
32.85
 21
1068.6
  0
LINE
  8
0
 10
32.85
 20
1068.6
 11
32.85
 21
1065.5
  0
LINE
  8
0
 10
32.85
 20
1065.5
 11
43.8
 21
1065.5
  0
LINE
  8
0
 10
43.8
 20
1065.5
 11
43.8
 21
1117.05
  0
LINE
  8
0
 10
43.8
 20
1117.05
 11
46.9
 21
1117.05
  0
LINE
  8
0
 10
46.9
 20
1117.05
 11
46.9
 21
1165.5
  0
LINE
  8
0
 10
46.9
 20
1165.5
 11
43.8
 21
1165.5
  0
LINE
  8
0
 10
43.8
 20
1165.5
 11
43.8
 21
1213.95
  0
LINE
  8
0
 10
43.8
 20
1213.95
 11
46.9
 21
1213.95
  0
LINE
  8
0
 10
46.9
 20
1213.95
 11
46.9
 21
1262.4
  0
LINE
  8
0
 10
46.9
 20
1262.4
 11
43.8
 21
1262.4
  0
LINE
  8
0
 10
43.8
 20
1262.4
 11
43.8
 21
1265.5
  0
LINE
  8
0
 10
43.8
 20
1265.5
 11
32.85
 21
1265.5
  0
LINE
  8
0
 10
32.85
 20
1265.5
 11
32.85
 21
1262.4
  0
LINE
  8
0
 10
32.85
 20
1262.4
 11
21.9
 21
1262.4
  0
LINE
  8
0
 10
21.9
 20
1262.4
 11
21.9
 21
1265.5
  0
LINE
  8
0
 10
21.9
 20
1265.5
 11
10.95
 21
1265.5
  0
LINE
  8
0
 10
10.95
 20
1265.5
 11
10.95
 21
1262.4
  0
LINE
  8
0
 10
10.95
 20
1262.4
 11
-3.09999
 21
1262.4
  0
LINE
  8
0
 10
-3.09999
 20
1262.4
 11
-3.09999
 21
1213.95
  0
LINE
  8
0
 10
-3.09999
 20
1213.95
 11
0
 21
1213.95
  0
LINE
  8
0
 10
0
 20
1213.95
 11
0
 21
1165.5
  0
LINE
  8
0
 10
0
 20
1165.5
 11
-3.09999
 21
1165.5
  0
LINE
  8
0
 10
-3.09999
 20
1165.5
 11
-3.09999
 21
1117.05
  0
LINE
  8
0
 10
-3.09999
 20
1117.05
 11
0
 21
1117.05
  0
LINE
  8
0
 10
0
 20
1117.05
 11
0
 21
1068.6
  0
LINE
  8
0
 10
0
 20
1068.6
 11
10.95
 21
1068.6
  0
LINE
  8
0
 10
10.95
 20
1068.6
 11
10.95
 21
1065.5
  0
LINE
  8
0
 10
10.95
 20
1065.5
 11
21.9
 21
1065.5
  0
LINE
  8
0
 10
21.9
 20
1065.5
 11
21.9
 21
1068.6
  0
LINE
  8
0
 10
46.9
 20
1017.05
 11
70.35
 21
1017.05
  0
LINE
  8
0
 10
70.35
 20
1017.05
 11
70.35
 21
1013.95
  0
LINE
  8
0
 10
70.35
 20
1013.95
 11
96.9
 21
1013.95
  0
LINE
  8
0
 10
96.9
 20
1013.95
 11
96.9
 21
1028
  0
LINE
  8
0
 10
96.9
 20
1028
 11
93.8
 21
1028
  0
LINE
  8
0
 10
93.8
 20
1028
 11
93.8
 21
1038.95
  0
LINE
  8
0
 10
93.8
 20
1038.95
 11
96.9
 21
1038.95
  0
LINE
  8
0
 10
96.9
 20
1038.95
 11
96.9
 21
1049.9
  0
LINE
  8
0
 10
96.9
 20
1049.9
 11
93.8
 21
1049.9
  0
LINE
  8
0
 10
93.8
 20
1049.9
 11
93.8
 21
1060.85
  0
LINE
  8
0
 10
93.8
 20
1060.85
 11
70.35
 21
1060.85
  0
LINE
  8
0
 10
70.35
 20
1060.85
 11
70.35
 21
1063.95
  0
LINE
  8
0
 10
70.35
 20
1063.95
 11
46.9
 21
1063.95
  0
LINE
  8
0
 10
46.9
 20
1063.95
 11
46.9
 21
1060.85
  0
LINE
  8
0
 10
46.9
 20
1060.85
 11
23.45
 21
1060.85
  0
LINE
  8
0
 10
23.45
 20
1060.85
 11
23.45
 21
1063.95
  0
LINE
  8
0
 10
23.45
 20
1063.95
 11
-3.09999
 21
1063.95
  0
LINE
  8
0
 10
-3.09999
 20
1063.95
 11
-3.09999
 21
1060.85
  0
LINE
  8
0
 10
-3.09999
 20
1060.85
 11
0
 21
1060.85
  0
LINE
  8
0
 10
0
 20
1060.85
 11
0
 21
1049.9
  0
LINE
  8
0
 10
0
 20
1049.9
 11
-3.09999
 21
1049.9
  0
LINE
  8
0
 10
-3.09999
 20
1049.9
 11
-3.09999
 21
1038.95
  0
LINE
  8
0
 10
-3.09999
 20
1038.95
 11
0
 21
1038.95
  0
LINE
  8
0
 10
0
 20
1038.95
 11
0
 21
1028
  0
LINE
  8
0
 10
0
 20
1028
 11
-3.09999
 21
1028
  0
LINE
  8
0
 10
-3.09999
 20
1028
 11
-3.09999
 21
1017.05
  0
LINE
  8
0
 10
-3.09999
 20
1017.05
 11
23.45
 21
1017.05
  0
LINE
  8
0
 10
23.45
 20
1017.05
 11
23.45
 21
1013.95
  0
LINE
  8
0
 10
23.45
 20
1013.95
 11
46.9
 21
1013.95
  0
LINE
  8
0
 10
46.9
 20
1013.95
 11
46.9
 21
1017.05
  0
LINE
  8
0
 10
23.45
 20
965.5
 11
46.9
 21
965.5
  0
LINE
  8
0
 10
46.9
 20
965.5
 11
46.9
 21
962.4
  0
LINE
  8
0
 10
46.9
 20
962.4
 11
70.35
 21
962.4
  0
LINE
  8
0
 10
70.35
 20
962.4
 11
70.35
 21
965.5
  0
LINE
  8
0
 10
70.35
 20
965.5
 11
96.9
 21
965.5
  0
LINE
  8
0
 10
96.9
 20
965.5
 11
96.9
 21
976.45
  0
LINE
  8
0
 10
96.9
 20
976.45
 11
93.8
 21
976.45
  0
LINE
  8
0
 10
93.8
 20
976.45
 11
93.8
 21
987.4
  0
LINE
  8
0
 10
93.8
 20
987.4
 11
96.9
 21
987.4
  0
LINE
  8
0
 10
96.9
 20
987.4
 11
96.9
 21
998.35
  0
LINE
  8
0
 10
96.9
 20
998.35
 11
93.8
 21
998.35
  0
LINE
  8
0
 10
93.8
 20
998.35
 11
93.8
 21
1009.3
  0
LINE
  8
0
 10
93.8
 20
1009.3
 11
70.35
 21
1009.3
  0
LINE
  8
0
 10
70.35
 20
1009.3
 11
70.35
 21
1012.4
  0
LINE
  8
0
 10
70.35
 20
1012.4
 11
46.9
 21
1012.4
  0
LINE
  8
0
 10
46.9
 20
1012.4
 11
46.9
 21
1009.3
  0
LINE
  8
0
 10
46.9
 20
1009.3
 11
23.45
 21
1009.3
  0
LINE
  8
0
 10
23.45
 20
1009.3
 11
23.45
 21
1012.4
  0
LINE
  8
0
 10
23.45
 20
1012.4
 11
0
 21
1012.4
  0
LINE
  8
0
 10
0
 20
1012.4
 11
0
 21
998.35
  0
LINE
  8
0
 10
0
 20
998.35
 11
-3.09999
 21
998.35
  0
LINE
  8
0
 10
-3.09999
 20
998.35
 11
-3.09999
 21
987.4
  0
LINE
  8
0
 10
-3.09999
 20
987.4
 11
0
 21
987.4
  0
LINE
  8
0
 10
0
 20
987.4
 11
0
 21
976.45
  0
LINE
  8
0
 10
0
 20
976.45
 11
-3.09999
 21
976.45
  0
LINE
  8
0
 10
-3.09999
 20
976.45
 11
-3.09999
 21
965.5
  0
LINE
  8
0
 10
-3.09999
 20
965.5
 11
0
 21
965.5
  0
LINE
  8
0
 10
0
 20
965.5
 11
0
 21
962.4
  0
LINE
  8
0
 10
0
 20
962.4
 11
23.45
 21
962.4
  0
LINE
  8
0
 10
23.45
 20
962.4
 11
23.45
 21
965.5
  0
LINE
  8
0
 10
0
 20
763.95
 11
23.45
 21
763.95
  0
LINE
  8
0
 10
23.45
 20
763.95
 11
23.45
 21
760.85
  0
LINE
  8
0
 10
23.45
 20
760.85
 11
46.9
 21
760.85
  0
LINE
  8
0
 10
46.9
 20
760.85
 11
46.9
 21
763.95
  0
LINE
  8
0
 10
46.9
 20
763.95
 11
70.35
 21
763.95
  0
LINE
  8
0
 10
70.35
 20
763.95
 11
70.35
 21
760.85
  0
LINE
  8
0
 10
70.35
 20
760.85
 11
96.9
 21
760.85
  0
LINE
  8
0
 10
96.9
 20
760.85
 11
96.9
 21
812.4
  0
LINE
  8
0
 10
96.9
 20
812.4
 11
93.8
 21
812.4
  0
LINE
  8
0
 10
93.8
 20
812.4
 11
93.8
 21
860.85
  0
LINE
  8
0
 10
93.8
 20
860.85
 11
96.9
 21
860.85
  0
LINE
  8
0
 10
96.9
 20
860.85
 11
96.9
 21
909.3
  0
LINE
  8
0
 10
96.9
 20
909.3
 11
93.8
 21
909.3
  0
LINE
  8
0
 10
93.8
 20
909.3
 11
93.8
 21
960.85
  0
LINE
  8
0
 10
93.8
 20
960.85
 11
70.35
 21
960.85
  0
LINE
  8
0
 10
70.35
 20
960.85
 11
70.35
 21
957.75
  0
LINE
  8
0
 10
70.35
 20
957.75
 11
46.9
 21
957.75
  0
LINE
  8
0
 10
46.9
 20
957.75
 11
46.9
 21
960.85
  0
LINE
  8
0
 10
46.9
 20
960.85
 11
23.45
 21
960.85
  0
LINE
  8
0
 10
23.45
 20
960.85
 11
23.45
 21
957.75
  0
LINE
  8
0
 10
23.45
 20
957.75
 11
0
 21
957.75
  0
LINE
  8
0
 10
0
 20
957.75
 11
0
 21
909.3
  0
LINE
  8
0
 10
0
 20
909.3
 11
-3.09999
 21
909.3
  0
LINE
  8
0
 10
-3.09999
 20
909.3
 11
-3.09999
 21
860.85
  0
LINE
  8
0
 10
-3.09999
 20
860.85
 11
0
 21
860.85
  0
LINE
  8
0
 10
0
 20
860.85
 11
0
 21
812.4
  0
LINE
  8
0
 10
0
 20
812.4
 11
-3.09999
 21
812.4
  0
LINE
  8
0
 10
-3.09999
 20
812.4
 11
-3.09999
 21
760.85
  0
LINE
  8
0
 10
-3.09999
 20
760.85
 11
0
 21
760.85
  0
LINE
  8
0
 10
0
 20
760.85
 11
0
 21
763.95
  0
LINE
  8
0
 10
44.2868
 20
839.087
 11
41.7022
 21
839.496
  0
LINE
  8
0
 10
41.7022
 20
839.496
 11
39.1746
 21
840.174
  0
LINE
  8
0
 10
39.1746
 20
840.174
 11
36.7316
 21
841.111
  0
LINE
  8
0
 10
36.7316
 20
841.111
 11
34.4
 21
842.299
  0
LINE
  8
0
 10
34.4
 20
842.299
 11
32.2054
 21
843.725
  0
LINE
  8
0
 10
32.2054
 20
843.725
 11
30.1717
 21
845.371
  0
LINE
  8
0
 10
30.1717
 20
845.371
 11
28.3214
 21
847.222
  0
LINE
  8
0
 10
28.3214
 20
847.222
 11
26.6746
 21
849.255
  0
LINE
  8
0
 10
26.6746
 20
849.255
 11
25.2494
 21
851.45
  0
LINE
  8
0
 10
25.2494
 20
851.45
 11
24.0614
 21
853.782
  0
LINE
  8
0
 10
24.0614
 20
853.782
 11
23.1236
 21
856.225
  0
LINE
  8
0
 10
23.1236
 20
856.225
 11
22.4463
 21
858.752
  0
LINE
  8
0
 10
22.4463
 20
858.752
 11
22.0369
 21
861.337
  0
LINE
  8
0
 10
22.0369
 20
861.337
 11
21.9
 21
863.95
  0
LINE
  8
0
 10
21.9
 20
863.95
 11
22.0369
 21
866.563
  0
LINE
  8
0
 10
22.0369
 20
866.563
 11
22.4463
 21
869.148
  0
LINE
  8
0
 10
22.4463
 20
869.148
 11
23.1236
 21
871.675
  0
LINE
  8
0
 10
23.1236
 20
871.675
 11
24.0614
 21
874.118
  0
LINE
  8
0
 10
24.0614
 20
874.118
 11
25.2494
 21
876.45
  0
LINE
  8
0
 10
25.2494
 20
876.45
 11
26.6746
 21
878.645
  0
LINE
  8
0
 10
26.6746
 20
878.645
 11
28.3214
 21
880.678
  0
LINE
  8
0
 10
28.3214
 20
880.678
 11
30.1717
 21
882.529
  0
LINE
  8
0
 10
30.1717
 20
882.529
 11
32.2054
 21
884.175
  0
LINE
  8
0
 10
32.2054
 20
884.175
 11
34.4
 21
885.601
  0
LINE
  8
0
 10
34.4
 20
885.601
 11
36.7316
 21
886.789
  0
LINE
  8
0
 10
36.7316
 20
886.789
 11
39.1746
 21
887.726
  0
LINE
  8
0
 10
39.1746
 20
887.726
 11
41.7022
 21
888.404
  0
LINE
  8
0
 10
41.7022
 20
888.404
 11
44.2868
 21
888.813
  0
LINE
  8
0
 10
44.2868
 20
888.813
 11
46.9
 21
888.95
  0
LINE
  8
0
 10
46.9
 20
888.95
 11
49.5132
 21
888.813
  0
LINE
  8
0
 10
49.5132
 20
888.813
 11
52.0978
 21
888.404
  0
LINE
  8
0
 10
52.0978
 20
888.404
 11
54.6254
 21
887.726
  0
LINE
  8
0
 10
54.6254
 20
887.726
 11
57.0684
 21
886.789
  0
LINE
  8
0
 10
57.0684
 20
886.789
 11
59.4
 21
885.601
  0
LINE
  8
0
 10
59.4
 20
885.601
 11
61.5946
 21
884.175
  0
LINE
  8
0
 10
61.5946
 20
884.175
 11
63.6283
 21
882.529
  0
LINE
  8
0
 10
63.6283
 20
882.529
 11
65.4786
 21
880.678
  0
LINE
  8
0
 10
65.4786
 20
880.678
 11
67.1254
 21
878.645
  0
LINE
  8
0
 10
67.1254
 20
878.645
 11
68.5506
 21
876.45
  0
LINE
  8
0
 10
68.5506
 20
876.45
 11
69.7386
 21
874.118
  0
LINE
  8
0
 10
69.7386
 20
874.118
 11
70.6764
 21
871.675
  0
LINE
  8
0
 10
70.6764
 20
871.675
 11
71.3537
 21
869.148
  0
LINE
  8
0
 10
71.3537
 20
869.148
 11
71.763
 21
866.563
  0
LINE
  8
0
 10
71.763
 20
866.563
 11
71.9
 21
863.95
  0
LINE
  8
0
 10
71.9
 20
863.95
 11
71.763
 21
861.337
  0
LINE
  8
0
 10
71.763
 20
861.337
 11
71.3537
 21
858.752
  0
LINE
  8
0
 10
71.3537
 20
858.752
 11
70.6764
 21
856.225
  0
LINE
  8
0
 10
70.6764
 20
856.225
 11
69.7386
 21
853.782
  0
LINE
  8
0
 10
69.7386
 20
853.782
 11
68.5506
 21
851.45
  0
LINE
  8
0
 10
68.5506
 20
851.45
 11
67.1254
 21
849.255
  0
LINE
  8
0
 10
67.1254
 20
849.255
 11
65.4786
 21
847.222
  0
LINE
  8
0
 10
65.4786
 20
847.222
 11
63.6283
 21
845.371
  0
LINE
  8
0
 10
63.6283
 20
845.371
 11
61.5946
 21
843.725
  0
LINE
  8
0
 10
61.5946
 20
843.725
 11
59.4
 21
842.299
  0
LINE
  8
0
 10
59.4
 20
842.299
 11
57.0684
 21
841.111
  0
LINE
  8
0
 10
57.0684
 20
841.111
 11
54.6254
 21
840.174
  0
LINE
  8
0
 10
54.6254
 20
840.174
 11
52.0978
 21
839.496
  0
LINE
  8
0
 10
52.0978
 20
839.496
 11
49.5132
 21
839.087
  0
LINE
  8
0
 10
49.5132
 20
839.087
 11
46.9
 21
838.95
  0
LINE
  8
0
 10
46.9
 20
838.95
 11
44.2868
 21
839.087
  0
LINE
  8
0
 10
0
 20
562.4
 11
23.45
 21
562.4
  0
LINE
  8
0
 10
23.45
 20
562.4
 11
23.45
 21
559.3
  0
LINE
  8
0
 10
23.45
 20
559.3
 11
46.9
 21
559.3
  0
LINE
  8
0
 10
46.9
 20
559.3
 11
46.9
 21
562.4
  0
LINE
  8
0
 10
46.9
 20
562.4
 11
70.35
 21
562.4
  0
LINE
  8
0
 10
70.35
 20
562.4
 11
70.35
 21
559.3
  0
LINE
  8
0
 10
70.35
 20
559.3
 11
96.9
 21
559.3
  0
LINE
  8
0
 10
96.9
 20
559.3
 11
96.9
 21
610.85
  0
LINE
  8
0
 10
96.9
 20
610.85
 11
93.8
 21
610.85
  0
LINE
  8
0
 10
93.8
 20
610.85
 11
93.8
 21
659.3
  0
LINE
  8
0
 10
93.8
 20
659.3
 11
96.9
 21
659.3
  0
LINE
  8
0
 10
96.9
 20
659.3
 11
96.9
 21
707.75
  0
LINE
  8
0
 10
96.9
 20
707.75
 11
93.8
 21
707.75
  0
LINE
  8
0
 10
93.8
 20
707.75
 11
93.8
 21
756.2
  0
LINE
  8
0
 10
93.8
 20
756.2
 11
70.35
 21
756.2
  0
LINE
  8
0
 10
70.35
 20
756.2
 11
70.35
 21
759.3
  0
LINE
  8
0
 10
70.35
 20
759.3
 11
46.9
 21
759.3
  0
LINE
  8
0
 10
46.9
 20
759.3
 11
46.9
 21
756.2
  0
LINE
  8
0
 10
46.9
 20
756.2
 11
23.45
 21
756.2
  0
LINE
  8
0
 10
23.45
 20
756.2
 11
23.45
 21
759.3
  0
LINE
  8
0
 10
23.45
 20
759.3
 11
-3.09999
 21
759.3
  0
LINE
  8
0
 10
-3.09999
 20
759.3
 11
-3.09999
 21
756.2
  0
LINE
  8
0
 10
-3.09999
 20
756.2
 11
0
 21
756.2
  0
LINE
  8
0
 10
0
 20
756.2
 11
0
 21
707.75
  0
LINE
  8
0
 10
0
 20
707.75
 11
-3.09999
 21
707.75
  0
LINE
  8
0
 10
-3.09999
 20
707.75
 11
-3.09999
 21
659.3
  0
LINE
  8
0
 10
-3.09999
 20
659.3
 11
0
 21
659.3
  0
LINE
  8
0
 10
0
 20
659.3
 11
0
 21
610.85
  0
LINE
  8
0
 10
0
 20
610.85
 11
-3.09999
 21
610.85
  0
LINE
  8
0
 10
-3.09999
 20
610.85
 11
-3.09999
 21
559.3
  0
LINE
  8
0
 10
-3.09999
 20
559.3
 11
0
 21
559.3
  0
LINE
  8
0
 10
0
 20
559.3
 11
0
 21
562.4
  0
LINE
  8
0
 10
46.4
 20
750
 11
46.4
 21
753.1
  0
LINE
  8
0
 10
46.4
 20
753.1
 11
53.6
 21
753.1
  0
LINE
  8
0
 10
53.6
 20
753.1
 11
53.6
 21
750
  0
LINE
  8
0
 10
53.6
 20
750
 11
46.4
 21
750
  0
LINE
  8
0
 10
54.65
 20
565.5
 11
54.65
 21
568.6
  0
LINE
  8
0
 10
54.65
 20
568.6
 11
63.95
 21
568.6
  0
LINE
  8
0
 10
63.95
 20
568.6
 11
63.95
 21
565.5
  0
LINE
  8
0
 10
63.95
 20
565.5
 11
54.65
 21
565.5
  0
LINE
  8
0
 10
36.05
 20
565.5
 11
36.05
 21
568.6
  0
LINE
  8
0
 10
36.05
 20
568.6
 11
45.35
 21
568.6
  0
LINE
  8
0
 10
45.35
 20
568.6
 11
45.35
 21
565.5
  0
LINE
  8
0
 10
45.35
 20
565.5
 11
36.05
 21
565.5
  0
LINE
  8
0
 10
48.45
 20
565.5
 11
48.45
 21
568.6
  0
LINE
  8
0
 10
48.45
 20
568.6
 11
51.55
 21
568.6
  0
LINE
  8
0
 10
51.55
 20
568.6
 11
51.55
 21
565.5
  0
LINE
  8
0
 10
51.55
 20
565.5
 11
48.45
 21
565.5
  0
LINE
  8
0
 10
37.5
 20
360.85
 11
23.4
 21
360.85
  0
LINE
  8
0
 10
23.4
 20
360.85
 11
23.4
 21
363.95
  0
LINE
  8
0
 10
23.4
 20
363.95
 11
37.5
 21
363.95
  0
LINE
  8
0
 10
37.5
 20
363.95
 11
37.5
 21
545.35
  0
LINE
  8
0
 10
37.5
 20
545.35
 11
23.4
 21
545.35
  0
LINE
  8
0
 10
23.4
 20
545.35
 11
23.4
 21
548.45
  0
LINE
  8
0
 10
23.4
 20
548.45
 11
37.5
 21
548.45
  0
LINE
  8
0
 10
37.5
 20
548.45
 11
37.5
 21
554.65
  0
LINE
  8
0
 10
37.5
 20
554.65
 11
0
 21
554.65
  0
LINE
  8
0
 10
0
 20
554.65
 11
0
 21
548.45
  0
LINE
  8
0
 10
0
 20
548.45
 11
14.1
 21
548.45
  0
LINE
  8
0
 10
14.1
 20
548.45
 11
14.1
 21
545.35
  0
LINE
  8
0
 10
14.1
 20
545.35
 11
0
 21
545.35
  0
LINE
  8
0
 10
0
 20
545.35
 11
0
 21
363.95
  0
LINE
  8
0
 10
0
 20
363.95
 11
14.1
 21
363.95
  0
LINE
  8
0
 10
14.1
 20
363.95
 11
14.1
 21
360.85
  0
LINE
  8
0
 10
14.1
 20
360.85
 11
0
 21
360.85
  0
LINE
  8
0
 10
0
 20
360.85
 11
0
 21
354.65
  0
LINE
  8
0
 10
0
 20
354.65
 11
37.5
 21
354.65
  0
LINE
  8
0
 10
37.5
 20
354.65
 11
37.5
 21
360.85
  0
LINE
  8
0
 10
26.55
 20
165.5
 11
73.45
 21
165.5
  0
LINE
  8
0
 10
73.45
 20
165.5
 11
73.45
 21
162.4
  0
LINE
  8
0
 10
73.45
 20
162.4
 11
76.55
 21
162.4
  0
LINE
  8
0
 10
76.55
 20
162.4
 11
76.55
 21
165.5
  0
LINE
  8
0
 10
76.55
 20
165.5
 11
100
 21
165.5
  0
LINE
  8
0
 10
100
 20
165.5
 11
100
 21
346.9
  0
LINE
  8
0
 10
100
 20
346.9
 11
76.55
 21
346.9
  0
LINE
  8
0
 10
76.55
 20
346.9
 11
76.55
 21
350
  0
LINE
  8
0
 10
76.55
 20
350
 11
73.45
 21
350
  0
LINE
  8
0
 10
73.45
 20
350
 11
73.45
 21
346.9
  0
LINE
  8
0
 10
73.45
 20
346.9
 11
26.55
 21
346.9
  0
LINE
  8
0
 10
26.55
 20
346.9
 11
26.55
 21
350
  0
LINE
  8
0
 10
26.55
 20
350
 11
23.45
 21
350
  0
LINE
  8
0
 10
23.45
 20
350
 11
23.45
 21
346.9
  0
LINE
  8
0
 10
23.45
 20
346.9
 11
0
 21
346.9
  0
LINE
  8
0
 10
0
 20
346.9
 11
0
 21
165.5
  0
LINE
  8
0
 10
0
 20
165.5
 11
23.45
 21
165.5
  0
LINE
  8
0
 10
23.45
 20
165.5
 11
23.45
 21
162.4
  0
LINE
  8
0
 10
23.45
 20
162.4
 11
26.55
 21
162.4
  0
LINE
  8
0
 10
26.55
 20
162.4
 11
26.55
 21
165.5
  0
LINE
  8
0
 10
100
 20
157.75
 11
53.6
 21
157.75
  0
LINE
  8
0
 10
53.6
 20
157.75
 11
53.6
 21
160.85
  0
LINE
  8
0
 10
53.6
 20
160.85
 11
50.5
 21
160.85
  0
LINE
  8
0
 10
50.5
 20
160.85
 11
50.5
 21
132.95
  0
LINE
  8
0
 10
50.5
 20
132.95
 11
48.4753
 21
159.85
  0
LINE
  8
0
 10
48.4753
 20
159.85
 11
48.4
 21
159.85
  0
LINE
  8
0
 10
48.4
 20
159.85
 11
48.4
 21
160.955
  0
LINE
  8
0
 10
48.4
 20
160.955
 11
47.45
 21
162.95
  0
LINE
  8
0
 10
47.45
 20
162.95
 11
45.35
 21
162.95
  0
LINE
  8
0
 10
45.35
 20
162.95
 11
44.35
 21
160.85
  0
LINE
  8
0
 10
44.35
 20
160.85
 11
46.4
 21
160.85
  0
LINE
  8
0
 10
46.4
 20
160.85
 11
46.4
 21
126.75
  0
LINE
  8
0
 10
46.4
 20
126.75
 11
45.4
 21
126.75
  0
LINE
  8
0
 10
45.4
 20
126.75
 11
45.4
 21
157.75
  0
LINE
  8
0
 10
45.4
 20
157.75
 11
0
 21
157.75
  0
LINE
  8
0
 10
0
 20
157.75
 11
0
 21
82.75
  0
LINE
  8
0
 10
0
 20
82.75
 11
100
 21
82.75
  0
LINE
  8
0
 10
100
 20
82.75
 11
100
 21
157.75
  0
LINE
  8
0
 10
73.45
 20
120.25
 11
73.45
 21
123.35
  0
LINE
  8
0
 10
73.45
 20
123.35
 11
76.55
 21
123.35
  0
LINE
  8
0
 10
76.55
 20
123.35
 11
76.55
 21
120.25
  0
LINE
  8
0
 10
76.55
 20
120.25
 11
73.45
 21
120.25
  0
LINE
  8
0
 10
23.45
 20
120.25
 11
23.45
 21
123.35
  0
LINE
  8
0
 10
23.45
 20
123.35
 11
26.55
 21
123.35
  0
LINE
  8
0
 10
26.55
 20
123.35
 11
26.55
 21
120.25
  0
LINE
  8
0
 10
26.55
 20
120.25
 11
23.45
 21
120.25
  0
LINE
  8
0
 10
49.4876
 20
96.6253
 11
48.9809
 21
96.7056
  0
LINE
  8
0
 10
48.9809
 20
96.7056
 11
48.4853
 21
96.8384
  0
LINE
  8
0
 10
48.4853
 20
96.8384
 11
48.0064
 21
97.0222
  0
LINE
  8
0
 10
48.0064
 20
97.0222
 11
47.5492
 21
97.2551
  0
LINE
  8
0
 10
47.5492
 20
97.2551
 11
47.1189
 21
97.5346
  0
LINE
  8
0
 10
47.1189
 20
97.5346
 11
46.7202
 21
97.8575
  0
LINE
  8
0
 10
46.7202
 20
97.8575
 11
46.3575
 21
98.2202
  0
LINE
  8
0
 10
46.3575
 20
98.2202
 11
46.0346
 21
98.6189
  0
LINE
  8
0
 10
46.0346
 20
98.6189
 11
45.7551
 21
99.0492
  0
LINE
  8
0
 10
45.7551
 20
99.0492
 11
45.5222
 21
99.5064
  0
LINE
  8
0
 10
45.5222
 20
99.5064
 11
45.3519
 21
99.95
  0
LINE
  8
0
 10
45.3519
 20
99.95
 11
31.25
 21
99.95
  0
LINE
  8
0
 10
31.25
 20
99.95
 11
31.25
 21
103.05
  0
LINE
  8
0
 10
31.25
 20
103.05
 11
48.45
 21
103.05
  0
LINE
  8
0
 10
48.45
 20
103.05
 11
48.45
 21
106.148
  0
LINE
  8
0
 10
48.45
 20
106.148
 11
48.4853
 21
106.162
  0
LINE
  8
0
 10
48.4853
 20
106.162
 11
48.9809
 21
106.294
  0
LINE
  8
0
 10
48.9809
 20
106.294
 11
49.4876
 21
106.375
  0
LINE
  8
0
 10
49.4876
 20
106.375
 11
50
 21
106.402
  0
LINE
  8
0
 10
50
 20
106.402
 11
50.5123
 21
106.375
  0
LINE
  8
0
 10
50.5123
 20
106.375
 11
51.0191
 21
106.294
  0
LINE
  8
0
 10
51.0191
 20
106.294
 11
51.5146
 21
106.162
  0
LINE
  8
0
 10
51.5146
 20
106.162
 11
51.9936
 21
105.978
  0
LINE
  8
0
 10
51.9936
 20
105.978
 11
52.4508
 21
105.745
  0
LINE
  8
0
 10
52.4508
 20
105.745
 11
52.881
 21
105.465
  0
LINE
  8
0
 10
52.881
 20
105.465
 11
53.2798
 21
105.143
  0
LINE
  8
0
 10
53.2798
 20
105.143
 11
53.6425
 21
104.78
  0
LINE
  8
0
 10
53.6425
 20
104.78
 11
53.9654
 21
104.381
  0
LINE
  8
0
 10
53.9654
 20
104.381
 11
54.2448
 21
103.951
  0
LINE
  8
0
 10
54.2448
 20
103.951
 11
54.4778
 21
103.494
  0
LINE
  8
0
 10
54.4778
 20
103.494
 11
54.6481
 21
103.05
  0
LINE
  8
0
 10
54.6481
 20
103.05
 11
68.75
 21
103.05
  0
LINE
  8
0
 10
68.75
 20
103.05
 11
68.75
 21
99.95
  0
LINE
  8
0
 10
68.75
 20
99.95
 11
51.55
 21
99.95
  0
LINE
  8
0
 10
51.55
 20
99.95
 11
51.55
 21
96.8519
  0
LINE
  8
0
 10
51.55
 20
96.8519
 11
51.5146
 21
96.8384
  0
LINE
  8
0
 10
51.5146
 20
96.8384
 11
51.0191
 21
96.7056
  0
LINE
  8
0
 10
51.0191
 20
96.7056
 11
50.5123
 21
96.6253
  0
LINE
  8
0
 10
50.5123
 20
96.6253
 11
50
 21
96.5985
  0
LINE
  8
0
 10
50
 20
96.5985
 11
49.4876
 21
96.6253
  0
LINE
  8
0
 10
100
 20
75
 11
63.95
 21
75
  0
LINE
  8
0
 10
63.95
 20
75
 11
63.95
 21
78.1
  0
LINE
  8
0
 10
63.95
 20
78.1
 11
54.65
 21
78.1
  0
LINE
  8
0
 10
54.65
 20
78.1
 11
54.65
 21
75
  0
LINE
  8
0
 10
54.65
 20
75
 11
51.55
 21
75
  0
LINE
  8
0
 10
51.55
 20
75
 11
51.55
 21
71.9
  0
LINE
  8
0
 10
51.55
 20
71.9
 11
54.65
 21
71.9
  0
LINE
  8
0
 10
54.65
 20
71.9
 11
54.65
 21
68.8
  0
LINE
  8
0
 10
54.65
 20
68.8
 11
51.55
 21
68.8
  0
LINE
  8
0
 10
51.55
 20
68.8
 11
51.55
 21
65.7
  0
LINE
  8
0
 10
51.55
 20
65.7
 11
48.45
 21
65.7
  0
LINE
  8
0
 10
48.45
 20
65.7
 11
48.45
 21
68.8
  0
LINE
  8
0
 10
48.45
 20
68.8
 11
45.35
 21
68.8
  0
LINE
  8
0
 10
45.35
 20
68.8
 11
45.35
 21
71.9
  0
LINE
  8
0
 10
45.35
 20
71.9
 11
48.45
 21
71.9
  0
LINE
  8
0
 10
48.45
 20
71.9
 11
48.45
 21
75
  0
LINE
  8
0
 10
48.45
 20
75
 11
45.35
 21
75
  0
LINE
  8
0
 10
45.35
 20
75
 11
45.35
 21
78.1
  0
LINE
  8
0
 10
45.35
 20
78.1
 11
36.05
 21
78.1
  0
LINE
  8
0
 10
36.05
 20
78.1
 11
36.05
 21
75
  0
LINE
  8
0
 10
36.05
 20
75
 11
0
 21
75
  0
LINE
  8
0
 10
0
 20
75
 11
0
 21
0
  0
LINE
  8
0
 10
0
 20
0
 11
100
 21
0
  0
LINE
  8
0
 10
100
 20
0
 11
100
 21
75
  0
LINE
  8
0
 10
73.45
 20
37.5
 11
73.45
 21
40.6
  0
LINE
  8
0
 10
73.45
 20
40.6
 11
76.55
 21
40.6
  0
LINE
  8
0
 10
76.55
 20
40.6
 11
76.55
 21
37.5
  0
LINE
  8
0
 10
76.55
 20
37.5
 11
73.45
 21
37.5
  0
LINE
  8
0
 10
23.45
 20
37.5
 11
23.45
 21
40.6
  0
LINE
  8
0
 10
23.45
 20
40.6
 11
26.55
 21
40.6
  0
LINE
  8
0
 10
26.55
 20
40.6
 11
26.55
 21
37.5
  0
LINE
  8
0
 10
26.55
 20
37.5
 11
23.45
 21
37.5
  0
LINE
  8
0
 10
49.4876
 20
13.8753
 11
48.9809
 21
13.9556
  0
LINE
  8
0
 10
48.9809
 20
13.9556
 11
48.4853
 21
14.0884
  0
LINE
  8
0
 10
48.4853
 20
14.0884
 11
48.0064
 21
14.2722
  0
LINE
  8
0
 10
48.0064
 20
14.2722
 11
47.5492
 21
14.5051
  0
LINE
  8
0
 10
47.5492
 20
14.5051
 11
47.1189
 21
14.7846
  0
LINE
  8
0
 10
47.1189
 20
14.7846
 11
46.7202
 21
15.1075
  0
LINE
  8
0
 10
46.7202
 20
15.1075
 11
46.3575
 21
15.4702
  0
LINE
  8
0
 10
46.3575
 20
15.4702
 11
46.0346
 21
15.8689
  0
LINE
  8
0
 10
46.0346
 20
15.8689
 11
45.7551
 21
16.2992
  0
LINE
  8
0
 10
45.7551
 20
16.2992
 11
45.5222
 21
16.7564
  0
LINE
  8
0
 10
45.5222
 20
16.7564
 11
45.3519
 21
17.2
  0
LINE
  8
0
 10
45.3519
 20
17.2
 11
31.25
 21
17.2
  0
LINE
  8
0
 10
31.25
 20
17.2
 11
31.25
 21
20.3
  0
LINE
  8
0
 10
31.25
 20
20.3
 11
48.45
 21
20.3
  0
LINE
  8
0
 10
48.45
 20
20.3
 11
48.45
 21
23.3981
  0
LINE
  8
0
 10
48.45
 20
23.3981
 11
48.4853
 21
23.4116
  0
LINE
  8
0
 10
48.4853
 20
23.4116
 11
48.9809
 21
23.5444
  0
LINE
  8
0
 10
48.9809
 20
23.5444
 11
49.4876
 21
23.6247
  0
LINE
  8
0
 10
49.4876
 20
23.6247
 11
50
 21
23.6515
  0
LINE
  8
0
 10
50
 20
23.6515
 11
50.5123
 21
23.6247
  0
LINE
  8
0
 10
50.5123
 20
23.6247
 11
51.0191
 21
23.5444
  0
LINE
  8
0
 10
51.0191
 20
23.5444
 11
51.5146
 21
23.4116
  0
LINE
  8
0
 10
51.5146
 20
23.4116
 11
51.9936
 21
23.2278
  0
LINE
  8
0
 10
51.9936
 20
23.2278
 11
52.4508
 21
22.9948
  0
LINE
  8
0
 10
52.4508
 20
22.9948
 11
52.881
 21
22.7154
  0
LINE
  8
0
 10
52.881
 20
22.7154
 11
53.2798
 21
22.3925
  0
LINE
  8
0
 10
53.2798
 20
22.3925
 11
53.6425
 21
22.0298
  0
LINE
  8
0
 10
53.6425
 20
22.0298
 11
53.9654
 21
21.631
  0
LINE
  8
0
 10
53.9654
 20
21.631
 11
54.2448
 21
21.2008
  0
LINE
  8
0
 10
54.2448
 20
21.2008
 11
54.4778
 21
20.7436
  0
LINE
  8
0
 10
54.4778
 20
20.7436
 11
54.6481
 21
20.3
  0
LINE
  8
0
 10
54.6481
 20
20.3
 11
68.75
 21
20.3
  0
LINE
  8
0
 10
68.75
 20
20.3
 11
68.75
 21
17.2
  0
LINE
  8
0
 10
68.75
 20
17.2
 11
51.55
 21
17.2
  0
LINE
  8
0
 10
51.55
 20
17.2
 11
51.55
 21
14.1019
  0
LINE
  8
0
 10
51.55
 20
14.1019
 11
51.5146
 21
14.0884
  0
LINE
  8
0
 10
51.5146
 20
14.0884
 11
51.0191
 21
13.9556
  0
LINE
  8
0
 10
51.0191
 20
13.9556
 11
50.5123
 21
13.8753
  0
LINE
  8
0
 10
50.5123
 20
13.8753
 11
50
 21
13.8485
  0
LINE
  8
0
 10
50
 20
13.8485
 11
49.4876
 21
13.8753
  0
ENDSEC
  0
SECTION
  2
OBJECTS
  0
DICTIONARY
  0
ENDSEC
  0
EOF
