  0
SECTION
  2
BLOCKS
  0
ENDSEC
  0
SECTION
  2
ENTITIES
  0
LINE
  8
0
 10
10.95
 20
1074.8
 11
16.425
 21
1074.8
  0
LINE
  8
0
 10
16.425
 20
1074.8
 11
16.425
 21
1071.7
  0
LINE
  8
0
 10
16.425
 20
1071.7
 11
21.9
 21
1071.7
  0
LINE
  8
0
 10
21.9
 20
1071.7
 11
21.9
 21
1074.8
  0
LINE
  8
0
 10
21.9
 20
1074.8
 11
27.375
 21
1074.8
  0
LINE
  8
0
 10
27.375
 20
1074.8
 11
27.375
 21
1071.7
  0
LINE
  8
0
 10
27.375
 20
1071.7
 11
32.85
 21
1071.7
  0
LINE
  8
0
 10
32.85
 20
1071.7
 11
32.85
 21
1074.8
  0
LINE
  8
0
 10
32.85
 20
1074.8
 11
38.325
 21
1074.8
  0
LINE
  8
0
 10
38.325
 20
1074.8
 11
38.325
 21
1071.7
  0
LINE
  8
0
 10
38.325
 20
1071.7
 11
43.8
 21
1071.7
  0
LINE
  8
0
 10
43.8
 20
1071.7
 11
43.8
 21
1099.03
  0
LINE
  8
0
 10
43.8
 20
1099.03
 11
46.9
 21
1099.03
  0
LINE
  8
0
 10
46.9
 20
1099.03
 11
46.9
 21
1123.25
  0
LINE
  8
0
 10
46.9
 20
1123.25
 11
43.8
 21
1123.25
  0
LINE
  8
0
 10
43.8
 20
1123.25
 11
43.8
 21
1147.47
  0
LINE
  8
0
 10
43.8
 20
1147.47
 11
46.9
 21
1147.47
  0
LINE
  8
0
 10
46.9
 20
1147.47
 11
46.9
 21
1171.7
  0
LINE
  8
0
 10
46.9
 20
1171.7
 11
43.8
 21
1171.7
  0
LINE
  8
0
 10
43.8
 20
1171.7
 11
43.8
 21
1195.93
  0
LINE
  8
0
 10
43.8
 20
1195.93
 11
46.9
 21
1195.93
  0
LINE
  8
0
 10
46.9
 20
1195.93
 11
46.9
 21
1220.15
  0
LINE
  8
0
 10
46.9
 20
1220.15
 11
43.8
 21
1220.15
  0
LINE
  8
0
 10
43.8
 20
1220.15
 11
43.8
 21
1244.38
  0
LINE
  8
0
 10
43.8
 20
1244.38
 11
46.9
 21
1244.38
  0
LINE
  8
0
 10
46.9
 20
1244.38
 11
46.9
 21
1271.7
  0
LINE
  8
0
 10
46.9
 20
1271.7
 11
38.325
 21
1271.7
  0
LINE
  8
0
 10
38.325
 20
1271.7
 11
38.325
 21
1268.6
  0
LINE
  8
0
 10
38.325
 20
1268.6
 11
32.85
 21
1268.6
  0
LINE
  8
0
 10
32.85
 20
1268.6
 11
32.85
 21
1271.7
  0
LINE
  8
0
 10
32.85
 20
1271.7
 11
27.375
 21
1271.7
  0
LINE
  8
0
 10
27.375
 20
1271.7
 11
27.375
 21
1268.6
  0
LINE
  8
0
 10
27.375
 20
1268.6
 11
21.9
 21
1268.6
  0
LINE
  8
0
 10
21.9
 20
1268.6
 11
21.9
 21
1271.7
  0
LINE
  8
0
 10
21.9
 20
1271.7
 11
16.425
 21
1271.7
  0
LINE
  8
0
 10
16.425
 20
1271.7
 11
16.425
 21
1268.6
  0
LINE
  8
0
 10
16.425
 20
1268.6
 11
10.95
 21
1268.6
  0
LINE
  8
0
 10
10.95
 20
1268.6
 11
10.95
 21
1271.7
  0
LINE
  8
0
 10
10.95
 20
1271.7
 11
5.47499
 21
1271.7
  0
LINE
  8
0
 10
5.47499
 20
1271.7
 11
5.47499
 21
1268.6
  0
LINE
  8
0
 10
5.47499
 20
1268.6
 11
-3.09999
 21
1268.6
  0
LINE
  8
0
 10
-3.09999
 20
1268.6
 11
-3.09999
 21
1244.38
  0
LINE
  8
0
 10
-3.09999
 20
1244.38
 11
0
 21
1244.38
  0
LINE
  8
0
 10
0
 20
1244.38
 11
0
 21
1220.15
  0
LINE
  8
0
 10
0
 20
1220.15
 11
-3.09999
 21
1220.15
  0
LINE
  8
0
 10
-3.09999
 20
1220.15
 11
-3.09999
 21
1195.93
  0
LINE
  8
0
 10
-3.09999
 20
1195.93
 11
0
 21
1195.93
  0
LINE
  8
0
 10
0
 20
1195.93
 11
0
 21
1171.7
  0
LINE
  8
0
 10
0
 20
1171.7
 11
-3.09999
 21
1171.7
  0
LINE
  8
0
 10
-3.09999
 20
1171.7
 11
-3.09999
 21
1147.47
  0
LINE
  8
0
 10
-3.09999
 20
1147.47
 11
0
 21
1147.47
  0
LINE
  8
0
 10
0
 20
1147.47
 11
0
 21
1123.25
  0
LINE
  8
0
 10
0
 20
1123.25
 11
-3.09999
 21
1123.25
  0
LINE
  8
0
 10
-3.09999
 20
1123.25
 11
-3.09999
 21
1099.03
  0
LINE
  8
0
 10
-3.09999
 20
1099.03
 11
0
 21
1099.03
  0
LINE
  8
0
 10
0
 20
1099.03
 11
0
 21
1074.8
  0
LINE
  8
0
 10
0
 20
1074.8
 11
5.47499
 21
1074.8
  0
LINE
  8
0
 10
5.47499
 20
1074.8
 11
5.47499
 21
1071.7
  0
LINE
  8
0
 10
5.47499
 20
1071.7
 11
10.95
 21
1071.7
  0
LINE
  8
0
 10
10.95
 20
1071.7
 11
10.95
 21
1074.8
  0
LINE
  8
0
 10
10.95
 20
871.7
 11
16.425
 21
871.7
  0
LINE
  8
0
 10
16.425
 20
871.7
 11
16.425
 21
868.6
  0
LINE
  8
0
 10
16.425
 20
868.6
 11
21.9
 21
868.6
  0
LINE
  8
0
 10
21.9
 20
868.6
 11
21.9
 21
871.7
  0
LINE
  8
0
 10
21.9
 20
871.7
 11
27.375
 21
871.7
  0
LINE
  8
0
 10
27.375
 20
871.7
 11
27.375
 21
868.6
  0
LINE
  8
0
 10
27.375
 20
868.6
 11
32.85
 21
868.6
  0
LINE
  8
0
 10
32.85
 20
868.6
 11
32.85
 21
871.7
  0
LINE
  8
0
 10
32.85
 20
871.7
 11
38.325
 21
871.7
  0
LINE
  8
0
 10
38.325
 20
871.7
 11
38.325
 21
868.6
  0
LINE
  8
0
 10
38.325
 20
868.6
 11
43.8
 21
868.6
  0
LINE
  8
0
 10
43.8
 20
868.6
 11
43.8
 21
895.925
  0
LINE
  8
0
 10
43.8
 20
895.925
 11
46.9
 21
895.925
  0
LINE
  8
0
 10
46.9
 20
895.925
 11
46.9
 21
920.15
  0
LINE
  8
0
 10
46.9
 20
920.15
 11
43.8
 21
920.15
  0
LINE
  8
0
 10
43.8
 20
920.15
 11
43.8
 21
944.375
  0
LINE
  8
0
 10
43.8
 20
944.375
 11
46.9
 21
944.375
  0
LINE
  8
0
 10
46.9
 20
944.375
 11
46.9
 21
968.6
  0
LINE
  8
0
 10
46.9
 20
968.6
 11
43.8
 21
968.6
  0
LINE
  8
0
 10
43.8
 20
968.6
 11
43.8
 21
992.825
  0
LINE
  8
0
 10
43.8
 20
992.825
 11
46.9
 21
992.825
  0
LINE
  8
0
 10
46.9
 20
992.825
 11
46.9
 21
1017.05
  0
LINE
  8
0
 10
46.9
 20
1017.05
 11
43.8
 21
1017.05
  0
LINE
  8
0
 10
43.8
 20
1017.05
 11
43.8
 21
1041.28
  0
LINE
  8
0
 10
43.8
 20
1041.28
 11
46.9
 21
1041.28
  0
LINE
  8
0
 10
46.9
 20
1041.28
 11
46.9
 21
1065.5
  0
LINE
  8
0
 10
46.9
 20
1065.5
 11
43.8
 21
1065.5
  0
LINE
  8
0
 10
43.8
 20
1065.5
 11
43.8
 21
1068.6
  0
LINE
  8
0
 10
43.8
 20
1068.6
 11
38.325
 21
1068.6
  0
LINE
  8
0
 10
38.325
 20
1068.6
 11
38.325
 21
1065.5
  0
LINE
  8
0
 10
38.325
 20
1065.5
 11
32.85
 21
1065.5
  0
LINE
  8
0
 10
32.85
 20
1065.5
 11
32.85
 21
1068.6
  0
LINE
  8
0
 10
32.85
 20
1068.6
 11
27.375
 21
1068.6
  0
LINE
  8
0
 10
27.375
 20
1068.6
 11
27.375
 21
1065.5
  0
LINE
  8
0
 10
27.375
 20
1065.5
 11
21.9
 21
1065.5
  0
LINE
  8
0
 10
21.9
 20
1065.5
 11
21.9
 21
1068.6
  0
LINE
  8
0
 10
21.9
 20
1068.6
 11
16.425
 21
1068.6
  0
LINE
  8
0
 10
16.425
 20
1068.6
 11
16.425
 21
1065.5
  0
LINE
  8
0
 10
16.425
 20
1065.5
 11
10.95
 21
1065.5
  0
LINE
  8
0
 10
10.95
 20
1065.5
 11
10.95
 21
1068.6
  0
LINE
  8
0
 10
10.95
 20
1068.6
 11
5.47499
 21
1068.6
  0
LINE
  8
0
 10
5.47499
 20
1068.6
 11
5.47499
 21
1065.5
  0
LINE
  8
0
 10
5.47499
 20
1065.5
 11
-3.09999
 21
1065.5
  0
LINE
  8
0
 10
-3.09999
 20
1065.5
 11
-3.09999
 21
1041.28
  0
LINE
  8
0
 10
-3.09999
 20
1041.28
 11
0
 21
1041.28
  0
LINE
  8
0
 10
0
 20
1041.28
 11
0
 21
1017.05
  0
LINE
  8
0
 10
0
 20
1017.05
 11
-3.09999
 21
1017.05
  0
LINE
  8
0
 10
-3.09999
 20
1017.05
 11
-3.09999
 21
992.825
  0
LINE
  8
0
 10
-3.09999
 20
992.825
 11
0
 21
992.825
  0
LINE
  8
0
 10
0
 20
992.825
 11
0
 21
968.6
  0
LINE
  8
0
 10
0
 20
968.6
 11
-3.09999
 21
968.6
  0
LINE
  8
0
 10
-3.09999
 20
968.6
 11
-3.09999
 21
944.375
  0
LINE
  8
0
 10
-3.09999
 20
944.375
 11
0
 21
944.375
  0
LINE
  8
0
 10
0
 20
944.375
 11
0
 21
920.15
  0
LINE
  8
0
 10
0
 20
920.15
 11
-3.09999
 21
920.15
  0
LINE
  8
0
 10
-3.09999
 20
920.15
 11
-3.09999
 21
895.925
  0
LINE
  8
0
 10
-3.09999
 20
895.925
 11
0
 21
895.925
  0
LINE
  8
0
 10
0
 20
895.925
 11
0
 21
871.7
  0
LINE
  8
0
 10
0
 20
871.7
 11
5.47499
 21
871.7
  0
LINE
  8
0
 10
5.47499
 20
871.7
 11
5.47499
 21
868.6
  0
LINE
  8
0
 10
5.47499
 20
868.6
 11
10.95
 21
868.6
  0
LINE
  8
0
 10
10.95
 20
868.6
 11
10.95
 21
871.7
  0
LINE
  8
0
 10
23.45
 20
818.6
 11
35.175
 21
818.6
  0
LINE
  8
0
 10
35.175
 20
818.6
 11
35.175
 21
815.5
  0
LINE
  8
0
 10
35.175
 20
815.5
 11
46.9
 21
815.5
  0
LINE
  8
0
 10
46.9
 20
815.5
 11
46.9
 21
818.6
  0
LINE
  8
0
 10
46.9
 20
818.6
 11
58.625
 21
818.6
  0
LINE
  8
0
 10
58.625
 20
818.6
 11
58.625
 21
815.5
  0
LINE
  8
0
 10
58.625
 20
815.5
 11
70.35
 21
815.5
  0
LINE
  8
0
 10
70.35
 20
815.5
 11
70.35
 21
818.6
  0
LINE
  8
0
 10
70.35
 20
818.6
 11
82.075
 21
818.6
  0
LINE
  8
0
 10
82.075
 20
818.6
 11
82.075
 21
815.5
  0
LINE
  8
0
 10
82.075
 20
815.5
 11
96.9
 21
815.5
  0
LINE
  8
0
 10
96.9
 20
815.5
 11
96.9
 21
824.075
  0
LINE
  8
0
 10
96.9
 20
824.075
 11
93.8
 21
824.075
  0
LINE
  8
0
 10
93.8
 20
824.075
 11
93.8
 21
829.55
  0
LINE
  8
0
 10
93.8
 20
829.55
 11
96.9
 21
829.55
  0
LINE
  8
0
 10
96.9
 20
829.55
 11
96.9
 21
835.025
  0
LINE
  8
0
 10
96.9
 20
835.025
 11
93.8
 21
835.025
  0
LINE
  8
0
 10
93.8
 20
835.025
 11
93.8
 21
840.5
  0
LINE
  8
0
 10
93.8
 20
840.5
 11
96.9
 21
840.5
  0
LINE
  8
0
 10
96.9
 20
840.5
 11
96.9
 21
845.975
  0
LINE
  8
0
 10
96.9
 20
845.975
 11
93.8
 21
845.975
  0
LINE
  8
0
 10
93.8
 20
845.975
 11
93.8
 21
851.45
  0
LINE
  8
0
 10
93.8
 20
851.45
 11
96.9
 21
851.45
  0
LINE
  8
0
 10
96.9
 20
851.45
 11
96.9
 21
856.925
  0
LINE
  8
0
 10
96.9
 20
856.925
 11
93.8
 21
856.925
  0
LINE
  8
0
 10
93.8
 20
856.925
 11
93.8
 21
862.4
  0
LINE
  8
0
 10
93.8
 20
862.4
 11
82.075
 21
862.4
  0
LINE
  8
0
 10
82.075
 20
862.4
 11
82.075
 21
865.5
  0
LINE
  8
0
 10
82.075
 20
865.5
 11
70.35
 21
865.5
  0
LINE
  8
0
 10
70.35
 20
865.5
 11
70.35
 21
862.4
  0
LINE
  8
0
 10
70.35
 20
862.4
 11
58.625
 21
862.4
  0
LINE
  8
0
 10
58.625
 20
862.4
 11
58.625
 21
865.5
  0
LINE
  8
0
 10
58.625
 20
865.5
 11
46.9
 21
865.5
  0
LINE
  8
0
 10
46.9
 20
865.5
 11
46.9
 21
862.4
  0
LINE
  8
0
 10
46.9
 20
862.4
 11
35.175
 21
862.4
  0
LINE
  8
0
 10
35.175
 20
862.4
 11
35.175
 21
865.5
  0
LINE
  8
0
 10
35.175
 20
865.5
 11
23.45
 21
865.5
  0
LINE
  8
0
 10
23.45
 20
865.5
 11
23.45
 21
862.4
  0
LINE
  8
0
 10
23.45
 20
862.4
 11
11.725
 21
862.4
  0
LINE
  8
0
 10
11.725
 20
862.4
 11
11.725
 21
865.5
  0
LINE
  8
0
 10
11.725
 20
865.5
 11
-3.09999
 21
865.5
  0
LINE
  8
0
 10
-3.09999
 20
865.5
 11
-3.09999
 21
862.4
  0
LINE
  8
0
 10
-3.09999
 20
862.4
 11
0
 21
862.4
  0
LINE
  8
0
 10
0
 20
862.4
 11
0
 21
856.925
  0
LINE
  8
0
 10
0
 20
856.925
 11
-3.09999
 21
856.925
  0
LINE
  8
0
 10
-3.09999
 20
856.925
 11
-3.09999
 21
851.45
  0
LINE
  8
0
 10
-3.09999
 20
851.45
 11
0
 21
851.45
  0
LINE
  8
0
 10
0
 20
851.45
 11
0
 21
845.975
  0
LINE
  8
0
 10
0
 20
845.975
 11
-3.09999
 21
845.975
  0
LINE
  8
0
 10
-3.09999
 20
845.975
 11
-3.09999
 21
840.5
  0
LINE
  8
0
 10
-3.09999
 20
840.5
 11
0
 21
840.5
  0
LINE
  8
0
 10
0
 20
840.5
 11
0
 21
835.025
  0
LINE
  8
0
 10
0
 20
835.025
 11
-3.09999
 21
835.025
  0
LINE
  8
0
 10
-3.09999
 20
835.025
 11
-3.09999
 21
829.55
  0
LINE
  8
0
 10
-3.09999
 20
829.55
 11
0
 21
829.55
  0
LINE
  8
0
 10
0
 20
829.55
 11
0
 21
824.075
  0
LINE
  8
0
 10
0
 20
824.075
 11
-3.09999
 21
824.075
  0
LINE
  8
0
 10
-3.09999
 20
824.075
 11
-3.09999
 21
818.6
  0
LINE
  8
0
 10
-3.09999
 20
818.6
 11
11.725
 21
818.6
  0
LINE
  8
0
 10
11.725
 20
818.6
 11
11.725
 21
815.5
  0
LINE
  8
0
 10
11.725
 20
815.5
 11
23.45
 21
815.5
  0
LINE
  8
0
 10
23.45
 20
815.5
 11
23.45
 21
818.6
  0
LINE
  8
0
 10
70.35
 20
812.4
 11
70.35
 21
809.3
  0
LINE
  8
0
 10
70.35
 20
809.3
 11
58.625
 21
809.3
  0
LINE
  8
0
 10
58.625
 20
809.3
 11
58.625
 21
812.4
  0
LINE
  8
0
 10
58.625
 20
812.4
 11
46.9
 21
812.4
  0
LINE
  8
0
 10
46.9
 20
812.4
 11
46.9
 21
809.3
  0
LINE
  8
0
 10
46.9
 20
809.3
 11
35.175
 21
809.3
  0
LINE
  8
0
 10
35.175
 20
809.3
 11
35.175
 21
812.4
  0
LINE
  8
0
 10
35.175
 20
812.4
 11
23.45
 21
812.4
  0
LINE
  8
0
 10
23.45
 20
812.4
 11
23.45
 21
809.3
  0
LINE
  8
0
 10
23.45
 20
809.3
 11
11.725
 21
809.3
  0
LINE
  8
0
 10
11.725
 20
809.3
 11
11.725
 21
812.4
  0
LINE
  8
0
 10
11.725
 20
812.4
 11
0
 21
812.4
  0
LINE
  8
0
 10
0
 20
812.4
 11
0
 21
803.825
  0
LINE
  8
0
 10
0
 20
803.825
 11
-3.09999
 21
803.825
  0
LINE
  8
0
 10
-3.09999
 20
803.825
 11
-3.09999
 21
798.35
  0
LINE
  8
0
 10
-3.09999
 20
798.35
 11
0
 21
798.35
  0
LINE
  8
0
 10
0
 20
798.35
 11
0
 21
792.875
  0
LINE
  8
0
 10
0
 20
792.875
 11
-3.09999
 21
792.875
  0
LINE
  8
0
 10
-3.09999
 20
792.875
 11
-3.09999
 21
787.4
  0
LINE
  8
0
 10
-3.09999
 20
787.4
 11
0
 21
787.4
  0
LINE
  8
0
 10
0
 20
787.4
 11
0
 21
781.925
  0
LINE
  8
0
 10
0
 20
781.925
 11
-3.09999
 21
781.925
  0
LINE
  8
0
 10
-3.09999
 20
781.925
 11
-3.09999
 21
776.45
  0
LINE
  8
0
 10
-3.09999
 20
776.45
 11
0
 21
776.45
  0
LINE
  8
0
 10
0
 20
776.45
 11
0
 21
770.975
  0
LINE
  8
0
 10
0
 20
770.975
 11
-3.09999
 21
770.975
  0
LINE
  8
0
 10
-3.09999
 20
770.975
 11
-3.09999
 21
765.5
  0
LINE
  8
0
 10
-3.09999
 20
765.5
 11
0
 21
765.5
  0
LINE
  8
0
 10
0
 20
765.5
 11
0
 21
762.4
  0
LINE
  8
0
 10
0
 20
762.4
 11
11.725
 21
762.4
  0
LINE
  8
0
 10
11.725
 20
762.4
 11
11.725
 21
765.5
  0
LINE
  8
0
 10
11.725
 20
765.5
 11
23.45
 21
765.5
  0
LINE
  8
0
 10
23.45
 20
765.5
 11
23.45
 21
762.4
  0
LINE
  8
0
 10
23.45
 20
762.4
 11
35.175
 21
762.4
  0
LINE
  8
0
 10
35.175
 20
762.4
 11
35.175
 21
765.5
  0
LINE
  8
0
 10
35.175
 20
765.5
 11
46.9
 21
765.5
  0
LINE
  8
0
 10
46.9
 20
765.5
 11
46.9
 21
762.4
  0
LINE
  8
0
 10
46.9
 20
762.4
 11
58.625
 21
762.4
  0
LINE
  8
0
 10
58.625
 20
762.4
 11
58.625
 21
765.5
  0
LINE
  8
0
 10
58.625
 20
765.5
 11
70.35
 21
765.5
  0
LINE
  8
0
 10
70.35
 20
765.5
 11
70.35
 21
762.4
  0
LINE
  8
0
 10
70.35
 20
762.4
 11
82.075
 21
762.4
  0
LINE
  8
0
 10
82.075
 20
762.4
 11
82.075
 21
765.5
  0
LINE
  8
0
 10
82.075
 20
765.5
 11
96.9
 21
765.5
  0
LINE
  8
0
 10
96.9
 20
765.5
 11
96.9
 21
770.975
  0
LINE
  8
0
 10
96.9
 20
770.975
 11
93.8
 21
770.975
  0
LINE
  8
0
 10
93.8
 20
770.975
 11
93.8
 21
776.45
  0
LINE
  8
0
 10
93.8
 20
776.45
 11
96.9
 21
776.45
  0
LINE
  8
0
 10
96.9
 20
776.45
 11
96.9
 21
781.925
  0
LINE
  8
0
 10
96.9
 20
781.925
 11
93.8
 21
781.925
  0
LINE
  8
0
 10
93.8
 20
781.925
 11
93.8
 21
787.4
  0
LINE
  8
0
 10
93.8
 20
787.4
 11
96.9
 21
787.4
  0
LINE
  8
0
 10
96.9
 20
787.4
 11
96.9
 21
792.875
  0
LINE
  8
0
 10
96.9
 20
792.875
 11
93.8
 21
792.875
  0
LINE
  8
0
 10
93.8
 20
792.875
 11
93.8
 21
798.35
  0
LINE
  8
0
 10
93.8
 20
798.35
 11
96.9
 21
798.35
  0
LINE
  8
0
 10
96.9
 20
798.35
 11
96.9
 21
803.825
  0
LINE
  8
0
 10
96.9
 20
803.825
 11
93.8
 21
803.825
  0
LINE
  8
0
 10
93.8
 20
803.825
 11
93.8
 21
809.3
  0
LINE
  8
0
 10
93.8
 20
809.3
 11
82.075
 21
809.3
  0
LINE
  8
0
 10
82.075
 20
809.3
 11
82.075
 21
812.4
  0
LINE
  8
0
 10
82.075
 20
812.4
 11
70.35
 21
812.4
  0
LINE
  8
0
 10
0
 20
562.4
 11
11.725
 21
562.4
  0
LINE
  8
0
 10
11.725
 20
562.4
 11
11.725
 21
559.3
  0
LINE
  8
0
 10
11.725
 20
559.3
 11
23.45
 21
559.3
  0
LINE
  8
0
 10
23.45
 20
559.3
 11
23.45
 21
562.4
  0
LINE
  8
0
 10
23.45
 20
562.4
 11
35.175
 21
562.4
  0
LINE
  8
0
 10
35.175
 20
562.4
 11
35.175
 21
559.3
  0
LINE
  8
0
 10
35.175
 20
559.3
 11
46.9
 21
559.3
  0
LINE
  8
0
 10
46.9
 20
559.3
 11
46.9
 21
562.4
  0
LINE
  8
0
 10
46.9
 20
562.4
 11
58.625
 21
562.4
  0
LINE
  8
0
 10
58.625
 20
562.4
 11
58.625
 21
559.3
  0
LINE
  8
0
 10
58.625
 20
559.3
 11
70.35
 21
559.3
  0
LINE
  8
0
 10
70.35
 20
559.3
 11
70.35
 21
562.4
  0
LINE
  8
0
 10
70.35
 20
562.4
 11
82.075
 21
562.4
  0
LINE
  8
0
 10
82.075
 20
562.4
 11
82.075
 21
559.3
  0
LINE
  8
0
 10
82.075
 20
559.3
 11
96.9
 21
559.3
  0
LINE
  8
0
 10
96.9
 20
559.3
 11
96.9
 21
586.625
  0
LINE
  8
0
 10
96.9
 20
586.625
 11
93.8
 21
586.625
  0
LINE
  8
0
 10
93.8
 20
586.625
 11
93.8
 21
610.85
  0
LINE
  8
0
 10
93.8
 20
610.85
 11
96.9
 21
610.85
  0
LINE
  8
0
 10
96.9
 20
610.85
 11
96.9
 21
635.075
  0
LINE
  8
0
 10
96.9
 20
635.075
 11
93.8
 21
635.075
  0
LINE
  8
0
 10
93.8
 20
635.075
 11
93.8
 21
659.3
  0
LINE
  8
0
 10
93.8
 20
659.3
 11
96.9
 21
659.3
  0
LINE
  8
0
 10
96.9
 20
659.3
 11
96.9
 21
683.525
  0
LINE
  8
0
 10
96.9
 20
683.525
 11
93.8
 21
683.525
  0
LINE
  8
0
 10
93.8
 20
683.525
 11
93.8
 21
707.75
  0
LINE
  8
0
 10
93.8
 20
707.75
 11
96.9
 21
707.75
  0
LINE
  8
0
 10
96.9
 20
707.75
 11
96.9
 21
731.975
  0
LINE
  8
0
 10
96.9
 20
731.975
 11
93.8
 21
731.975
  0
LINE
  8
0
 10
93.8
 20
731.975
 11
93.8
 21
759.3
  0
LINE
  8
0
 10
93.8
 20
759.3
 11
82.075
 21
759.3
  0
LINE
  8
0
 10
82.075
 20
759.3
 11
82.075
 21
756.2
  0
LINE
  8
0
 10
82.075
 20
756.2
 11
70.35
 21
756.2
  0
LINE
  8
0
 10
70.35
 20
756.2
 11
70.35
 21
759.3
  0
LINE
  8
0
 10
70.35
 20
759.3
 11
58.625
 21
759.3
  0
LINE
  8
0
 10
58.625
 20
759.3
 11
58.625
 21
756.2
  0
LINE
  8
0
 10
58.625
 20
756.2
 11
46.9
 21
756.2
  0
LINE
  8
0
 10
46.9
 20
756.2
 11
46.9
 21
759.3
  0
LINE
  8
0
 10
46.9
 20
759.3
 11
35.175
 21
759.3
  0
LINE
  8
0
 10
35.175
 20
759.3
 11
35.175
 21
756.2
  0
LINE
  8
0
 10
35.175
 20
756.2
 11
23.45
 21
756.2
  0
LINE
  8
0
 10
23.45
 20
756.2
 11
23.45
 21
759.3
  0
LINE
  8
0
 10
23.45
 20
759.3
 11
11.725
 21
759.3
  0
LINE
  8
0
 10
11.725
 20
759.3
 11
11.725
 21
756.2
  0
LINE
  8
0
 10
11.725
 20
756.2
 11
0
 21
756.2
  0
LINE
  8
0
 10
0
 20
756.2
 11
0
 21
731.975
  0
LINE
  8
0
 10
0
 20
731.975
 11
-3.09999
 21
731.975
  0
LINE
  8
0
 10
-3.09999
 20
731.975
 11
-3.09999
 21
707.75
  0
LINE
  8
0
 10
-3.09999
 20
707.75
 11
0
 21
707.75
  0
LINE
  8
0
 10
0
 20
707.75
 11
0
 21
683.525
  0
LINE
  8
0
 10
0
 20
683.525
 11
-3.09999
 21
683.525
  0
LINE
  8
0
 10
-3.09999
 20
683.525
 11
-3.09999
 21
659.3
  0
LINE
  8
0
 10
-3.09999
 20
659.3
 11
0
 21
659.3
  0
LINE
  8
0
 10
0
 20
659.3
 11
0
 21
635.075
  0
LINE
  8
0
 10
0
 20
635.075
 11
-3.09999
 21
635.075
  0
LINE
  8
0
 10
-3.09999
 20
635.075
 11
-3.09999
 21
610.85
  0
LINE
  8
0
 10
-3.09999
 20
610.85
 11
0
 21
610.85
  0
LINE
  8
0
 10
0
 20
610.85
 11
0
 21
586.625
  0
LINE
  8
0
 10
0
 20
586.625
 11
-3.09999
 21
586.625
  0
LINE
  8
0
 10
-3.09999
 20
586.625
 11
-3.09999
 21
559.3
  0
LINE
  8
0
 10
-3.09999
 20
559.3
 11
0
 21
559.3
  0
LINE
  8
0
 10
0
 20
559.3
 11
0
 21
562.4
  0
LINE
  8
0
 10
47.3868
 20
637.537
 11
42.2746
 21
638.624
  0
LINE
  8
0
 10
42.2746
 20
638.624
 11
37.5
 21
640.749
  0
LINE
  8
0
 10
37.5
 20
640.749
 11
33.2717
 21
643.821
  0
LINE
  8
0
 10
33.2717
 20
643.821
 11
29.7746
 21
647.705
  0
LINE
  8
0
 10
29.7746
 20
647.705
 11
27.1614
 21
652.232
  0
LINE
  8
0
 10
27.1614
 20
652.232
 11
25.5463
 21
657.202
  0
LINE
  8
0
 10
25.5463
 20
657.202
 11
25
 21
662.4
  0
LINE
  8
0
 10
25
 20
662.4
 11
25.5463
 21
667.598
  0
LINE
  8
0
 10
25.5463
 20
667.598
 11
27.1614
 21
672.568
  0
LINE
  8
0
 10
27.1614
 20
672.568
 11
29.7746
 21
677.095
  0
LINE
  8
0
 10
29.7746
 20
677.095
 11
33.2717
 21
680.979
  0
LINE
  8
0
 10
33.2717
 20
680.979
 11
37.5
 21
684.051
  0
LINE
  8
0
 10
37.5
 20
684.051
 11
42.2746
 21
686.176
  0
LINE
  8
0
 10
42.2746
 20
686.176
 11
47.3868
 21
687.263
  0
LINE
  8
0
 10
47.3868
 20
687.263
 11
52.6132
 21
687.263
  0
LINE
  8
0
 10
52.6132
 20
687.263
 11
57.7254
 21
686.176
  0
LINE
  8
0
 10
57.7254
 20
686.176
 11
62.5
 21
684.051
  0
LINE
  8
0
 10
62.5
 20
684.051
 11
66.7283
 21
680.979
  0
LINE
  8
0
 10
66.7283
 20
680.979
 11
70.2254
 21
677.095
  0
LINE
  8
0
 10
70.2254
 20
677.095
 11
72.8386
 21
672.568
  0
LINE
  8
0
 10
72.8386
 20
672.568
 11
74.4537
 21
667.598
  0
LINE
  8
0
 10
74.4537
 20
667.598
 11
75
 21
662.4
  0
LINE
  8
0
 10
75
 20
662.4
 11
74.4537
 21
657.202
  0
LINE
  8
0
 10
74.4537
 20
657.202
 11
72.8386
 21
652.232
  0
LINE
  8
0
 10
72.8386
 20
652.232
 11
70.2254
 21
647.705
  0
LINE
  8
0
 10
70.2254
 20
647.705
 11
66.7283
 21
643.821
  0
LINE
  8
0
 10
66.7283
 20
643.821
 11
62.5
 21
640.749
  0
LINE
  8
0
 10
62.5
 20
640.749
 11
57.7254
 21
638.624
  0
LINE
  8
0
 10
57.7254
 20
638.624
 11
52.6132
 21
637.537
  0
LINE
  8
0
 10
52.6132
 20
637.537
 11
47.3868
 21
637.537
  0
LINE
  8
0
 10
0
 20
359.3
 11
11.725
 21
359.3
  0
LINE
  8
0
 10
11.725
 20
359.3
 11
11.725
 21
356.2
  0
LINE
  8
0
 10
11.725
 20
356.2
 11
23.45
 21
356.2
  0
LINE
  8
0
 10
23.45
 20
356.2
 11
23.45
 21
359.3
  0
LINE
  8
0
 10
23.45
 20
359.3
 11
35.175
 21
359.3
  0
LINE
  8
0
 10
35.175
 20
359.3
 11
35.175
 21
356.2
  0
LINE
  8
0
 10
35.175
 20
356.2
 11
46.9
 21
356.2
  0
LINE
  8
0
 10
46.9
 20
356.2
 11
46.9
 21
359.3
  0
LINE
  8
0
 10
46.9
 20
359.3
 11
58.625
 21
359.3
  0
LINE
  8
0
 10
58.625
 20
359.3
 11
58.625
 21
356.2
  0
LINE
  8
0
 10
58.625
 20
356.2
 11
70.35
 21
356.2
  0
LINE
  8
0
 10
70.35
 20
356.2
 11
70.35
 21
359.3
  0
LINE
  8
0
 10
70.35
 20
359.3
 11
82.075
 21
359.3
  0
LINE
  8
0
 10
82.075
 20
359.3
 11
82.075
 21
356.2
  0
LINE
  8
0
 10
82.075
 20
356.2
 11
96.9
 21
356.2
  0
LINE
  8
0
 10
96.9
 20
356.2
 11
96.9
 21
383.525
  0
LINE
  8
0
 10
96.9
 20
383.525
 11
93.8
 21
383.525
  0
LINE
  8
0
 10
93.8
 20
383.525
 11
93.8
 21
407.75
  0
LINE
  8
0
 10
93.8
 20
407.75
 11
96.9
 21
407.75
  0
LINE
  8
0
 10
96.9
 20
407.75
 11
96.9
 21
431.975
  0
LINE
  8
0
 10
96.9
 20
431.975
 11
93.8
 21
431.975
  0
LINE
  8
0
 10
93.8
 20
431.975
 11
93.8
 21
456.2
  0
LINE
  8
0
 10
93.8
 20
456.2
 11
96.9
 21
456.2
  0
LINE
  8
0
 10
96.9
 20
456.2
 11
96.9
 21
480.425
  0
LINE
  8
0
 10
96.9
 20
480.425
 11
93.8
 21
480.425
  0
LINE
  8
0
 10
93.8
 20
480.425
 11
93.8
 21
504.65
  0
LINE
  8
0
 10
93.8
 20
504.65
 11
96.9
 21
504.65
  0
LINE
  8
0
 10
96.9
 20
504.65
 11
96.9
 21
528.875
  0
LINE
  8
0
 10
96.9
 20
528.875
 11
93.8
 21
528.875
  0
LINE
  8
0
 10
93.8
 20
528.875
 11
93.8
 21
553.1
  0
LINE
  8
0
 10
93.8
 20
553.1
 11
82.075
 21
553.1
  0
LINE
  8
0
 10
82.075
 20
553.1
 11
82.075
 21
556.2
  0
LINE
  8
0
 10
82.075
 20
556.2
 11
70.35
 21
556.2
  0
LINE
  8
0
 10
70.35
 20
556.2
 11
70.35
 21
553.1
  0
LINE
  8
0
 10
70.35
 20
553.1
 11
58.625
 21
553.1
  0
LINE
  8
0
 10
58.625
 20
553.1
 11
58.625
 21
556.2
  0
LINE
  8
0
 10
58.625
 20
556.2
 11
46.9
 21
556.2
  0
LINE
  8
0
 10
46.9
 20
556.2
 11
46.9
 21
553.1
  0
LINE
  8
0
 10
46.9
 20
553.1
 11
35.175
 21
553.1
  0
LINE
  8
0
 10
35.175
 20
553.1
 11
35.175
 21
556.2
  0
LINE
  8
0
 10
35.175
 20
556.2
 11
23.45
 21
556.2
  0
LINE
  8
0
 10
23.45
 20
556.2
 11
23.45
 21
553.1
  0
LINE
  8
0
 10
23.45
 20
553.1
 11
11.725
 21
553.1
  0
LINE
  8
0
 10
11.725
 20
553.1
 11
11.725
 21
556.2
  0
LINE
  8
0
 10
11.725
 20
556.2
 11
-3.09999
 21
556.2
  0
LINE
  8
0
 10
-3.09999
 20
556.2
 11
-3.09999
 21
553.1
  0
LINE
  8
0
 10
-3.09999
 20
553.1
 11
0
 21
553.1
  0
LINE
  8
0
 10
0
 20
553.1
 11
0
 21
528.875
  0
LINE
  8
0
 10
0
 20
528.875
 11
-3.09999
 21
528.875
  0
LINE
  8
0
 10
-3.09999
 20
528.875
 11
-3.09999
 21
504.65
  0
LINE
  8
0
 10
-3.09999
 20
504.65
 11
0
 21
504.65
  0
LINE
  8
0
 10
0
 20
504.65
 11
0
 21
480.425
  0
LINE
  8
0
 10
0
 20
480.425
 11
-3.09999
 21
480.425
  0
LINE
  8
0
 10
-3.09999
 20
480.425
 11
-3.09999
 21
456.2
  0
LINE
  8
0
 10
-3.09999
 20
456.2
 11
0
 21
456.2
  0
LINE
  8
0
 10
0
 20
456.2
 11
0
 21
431.975
  0
LINE
  8
0
 10
0
 20
431.975
 11
-3.09999
 21
431.975
  0
LINE
  8
0
 10
-3.09999
 20
431.975
 11
-3.09999
 21
407.75
  0
LINE
  8
0
 10
-3.09999
 20
407.75
 11
0
 21
407.75
  0
LINE
  8
0
 10
0
 20
407.75
 11
0
 21
383.525
  0
LINE
  8
0
 10
0
 20
383.525
 11
-3.09999
 21
383.525
  0
LINE
  8
0
 10
-3.09999
 20
383.525
 11
-3.09999
 21
356.2
  0
LINE
  8
0
 10
-3.09999
 20
356.2
 11
0
 21
356.2
  0
LINE
  8
0
 10
0
 20
356.2
 11
0
 21
359.3
  0
LINE
  8
0
 10
48.45
 20
546.9
 11
48.45
 21
550
  0
LINE
  8
0
 10
48.45
 20
550
 11
51.55
 21
550
  0
LINE
  8
0
 10
51.55
 20
550
 11
51.55
 21
546.9
  0
LINE
  8
0
 10
51.55
 20
546.9
 11
48.45
 21
546.9
  0
LINE
  8
0
 10
54.65
 20
546.9
 11
54.65
 21
550
  0
LINE
  8
0
 10
54.65
 20
550
 11
63.95
 21
550
  0
LINE
  8
0
 10
63.95
 20
550
 11
63.95
 21
546.9
  0
LINE
  8
0
 10
63.95
 20
546.9
 11
54.65
 21
546.9
  0
LINE
  8
0
 10
36.05
 20
546.9
 11
36.05
 21
550
  0
LINE
  8
0
 10
36.05
 20
550
 11
45.35
 21
550
  0
LINE
  8
0
 10
45.35
 20
550
 11
45.35
 21
546.9
  0
LINE
  8
0
 10
45.35
 20
546.9
 11
36.05
 21
546.9
  0
LINE
  8
0
 10
48.45
 20
362.4
 11
48.45
 21
365.5
  0
LINE
  8
0
 10
48.45
 20
365.5
 11
51.55
 21
365.5
  0
LINE
  8
0
 10
51.55
 20
365.5
 11
51.55
 21
362.4
  0
LINE
  8
0
 10
51.55
 20
362.4
 11
48.45
 21
362.4
  0
LINE
  8
0
 10
36.05
 20
362.4
 11
36.05
 21
365.5
  0
LINE
  8
0
 10
36.05
 20
365.5
 11
45.35
 21
365.5
  0
LINE
  8
0
 10
45.35
 20
365.5
 11
45.35
 21
362.4
  0
LINE
  8
0
 10
45.35
 20
362.4
 11
36.05
 21
362.4
  0
LINE
  8
0
 10
54.65
 20
362.4
 11
54.65
 21
365.5
  0
LINE
  8
0
 10
54.65
 20
365.5
 11
63.95
 21
365.5
  0
LINE
  8
0
 10
63.95
 20
365.5
 11
63.95
 21
362.4
  0
LINE
  8
0
 10
63.95
 20
362.4
 11
54.65
 21
362.4
  0
LINE
  8
0
 10
26.55
 20
168.6
 11
73.45
 21
168.6
  0
LINE
  8
0
 10
73.45
 20
168.6
 11
73.45
 21
165.5
  0
LINE
  8
0
 10
73.45
 20
165.5
 11
76.55
 21
165.5
  0
LINE
  8
0
 10
76.55
 20
165.5
 11
76.55
 21
168.6
  0
LINE
  8
0
 10
76.55
 20
168.6
 11
100
 21
168.6
  0
LINE
  8
0
 10
100
 20
168.6
 11
100
 21
350
  0
LINE
  8
0
 10
100
 20
350
 11
76.55
 21
350
  0
LINE
  8
0
 10
76.55
 20
350
 11
76.55
 21
353.1
  0
LINE
  8
0
 10
76.55
 20
353.1
 11
73.45
 21
353.1
  0
LINE
  8
0
 10
73.45
 20
353.1
 11
73.45
 21
350
  0
LINE
  8
0
 10
73.45
 20
350
 11
26.55
 21
350
  0
LINE
  8
0
 10
26.55
 20
350
 11
26.55
 21
353.1
  0
LINE
  8
0
 10
26.55
 20
353.1
 11
23.45
 21
353.1
  0
LINE
  8
0
 10
23.45
 20
353.1
 11
23.45
 21
350
  0
LINE
  8
0
 10
23.45
 20
350
 11
0
 21
350
  0
LINE
  8
0
 10
0
 20
350
 11
0
 21
168.6
  0
LINE
  8
0
 10
0
 20
168.6
 11
23.45
 21
168.6
  0
LINE
  8
0
 10
23.45
 20
168.6
 11
23.45
 21
165.5
  0
LINE
  8
0
 10
23.45
 20
165.5
 11
26.55
 21
165.5
  0
LINE
  8
0
 10
26.55
 20
165.5
 11
26.55
 21
168.6
  0
LINE
  8
0
 10
100
 20
159.3
 11
63.95
 21
159.3
  0
LINE
  8
0
 10
63.95
 20
159.3
 11
63.95
 21
162.4
  0
LINE
  8
0
 10
63.95
 20
162.4
 11
54.65
 21
162.4
  0
LINE
  8
0
 10
54.65
 20
162.4
 11
54.65
 21
159.3
  0
LINE
  8
0
 10
54.65
 20
159.3
 11
51.55
 21
159.3
  0
LINE
  8
0
 10
51.55
 20
159.3
 11
51.55
 21
156.2
  0
LINE
  8
0
 10
51.55
 20
156.2
 11
54.65
 21
156.2
  0
LINE
  8
0
 10
54.65
 20
156.2
 11
54.65
 21
153.1
  0
LINE
  8
0
 10
54.65
 20
153.1
 11
51.55
 21
153.1
  0
LINE
  8
0
 10
51.55
 20
153.1
 11
51.55
 21
150
  0
LINE
  8
0
 10
51.55
 20
150
 11
48.45
 21
150
  0
LINE
  8
0
 10
48.45
 20
150
 11
48.45
 21
153.1
  0
LINE
  8
0
 10
48.45
 20
153.1
 11
45.35
 21
153.1
  0
LINE
  8
0
 10
45.35
 20
153.1
 11
45.35
 21
156.2
  0
LINE
  8
0
 10
45.35
 20
156.2
 11
48.45
 21
156.2
  0
LINE
  8
0
 10
48.45
 20
156.2
 11
48.45
 21
159.3
  0
LINE
  8
0
 10
48.45
 20
159.3
 11
45.35
 21
159.3
  0
LINE
  8
0
 10
45.35
 20
159.3
 11
45.35
 21
162.4
  0
LINE
  8
0
 10
45.35
 20
162.4
 11
36.05
 21
162.4
  0
LINE
  8
0
 10
36.05
 20
162.4
 11
36.05
 21
159.3
  0
LINE
  8
0
 10
36.05
 20
159.3
 11
0
 21
159.3
  0
LINE
  8
0
 10
0
 20
159.3
 11
0
 21
84.3
  0
LINE
  8
0
 10
0
 20
84.3
 11
100
 21
84.3
  0
LINE
  8
0
 10
100
 20
84.3
 11
100
 21
159.3
  0
LINE
  8
0
 10
73.45
 20
121.8
 11
73.45
 21
124.9
  0
LINE
  8
0
 10
73.45
 20
124.9
 11
76.55
 21
124.9
  0
LINE
  8
0
 10
76.55
 20
124.9
 11
76.55
 21
121.8
  0
LINE
  8
0
 10
76.55
 20
121.8
 11
73.45
 21
121.8
  0
LINE
  8
0
 10
23.45
 20
121.8
 11
23.45
 21
124.9
  0
LINE
  8
0
 10
23.45
 20
124.9
 11
26.55
 21
124.9
  0
LINE
  8
0
 10
26.55
 20
124.9
 11
26.55
 21
121.8
  0
LINE
  8
0
 10
26.55
 20
121.8
 11
23.45
 21
121.8
  0
LINE
  8
0
 10
100
 20
75
 11
63.95
 21
75
  0
LINE
  8
0
 10
63.95
 20
75
 11
63.95
 21
78.1
  0
LINE
  8
0
 10
63.95
 20
78.1
 11
54.65
 21
78.1
  0
LINE
  8
0
 10
54.65
 20
78.1
 11
54.65
 21
75
  0
LINE
  8
0
 10
54.65
 20
75
 11
51.55
 21
75
  0
LINE
  8
0
 10
51.55
 20
75
 11
51.55
 21
71.9
  0
LINE
  8
0
 10
51.55
 20
71.9
 11
54.65
 21
71.9
  0
LINE
  8
0
 10
54.65
 20
71.9
 11
54.65
 21
68.8
  0
LINE
  8
0
 10
54.65
 20
68.8
 11
51.55
 21
68.8
  0
LINE
  8
0
 10
51.55
 20
68.8
 11
51.55
 21
65.7
  0
LINE
  8
0
 10
51.55
 20
65.7
 11
48.45
 21
65.7
  0
LINE
  8
0
 10
48.45
 20
65.7
 11
48.45
 21
68.8
  0
LINE
  8
0
 10
48.45
 20
68.8
 11
45.35
 21
68.8
  0
LINE
  8
0
 10
45.35
 20
68.8
 11
45.35
 21
71.9
  0
LINE
  8
0
 10
45.35
 20
71.9
 11
48.45
 21
71.9
  0
LINE
  8
0
 10
48.45
 20
71.9
 11
48.45
 21
75
  0
LINE
  8
0
 10
48.45
 20
75
 11
45.35
 21
75
  0
LINE
  8
0
 10
45.35
 20
75
 11
45.35
 21
78.1
  0
LINE
  8
0
 10
45.35
 20
78.1
 11
36.05
 21
78.1
  0
LINE
  8
0
 10
36.05
 20
78.1
 11
36.05
 21
75
  0
LINE
  8
0
 10
36.05
 20
75
 11
0
 21
75
  0
LINE
  8
0
 10
0
 20
75
 11
0
 21
0
  0
LINE
  8
0
 10
0
 20
0
 11
100
 21
0
  0
LINE
  8
0
 10
100
 20
0
 11
100
 21
75
  0
LINE
  8
0
 10
23.45
 20
37.5
 11
23.45
 21
40.6
  0
LINE
  8
0
 10
23.45
 20
40.6
 11
26.55
 21
40.6
  0
LINE
  8
0
 10
26.55
 20
40.6
 11
26.55
 21
37.5
  0
LINE
  8
0
 10
26.55
 20
37.5
 11
23.45
 21
37.5
  0
LINE
  8
0
 10
73.45
 20
37.5
 11
73.45
 21
40.6
  0
LINE
  8
0
 10
73.45
 20
40.6
 11
76.55
 21
40.6
  0
LINE
  8
0
 10
76.55
 20
40.6
 11
76.55
 21
37.5
  0
LINE
  8
0
 10
76.55
 20
37.5
 11
73.45
 21
37.5
  0
ENDSEC
  0
SECTION
  2
OBJECTS
  0
DICTIONARY
  0
ENDSEC
  0
EOF
