<?xml version="1.0" standalone="no"?>
<!DOCTYPE svg PUBLIC "-//W3C//DTD SVG 1.1//EN" "http://www.w3.org/Graphics/SVG/1.1/DTD/svg11.dtd">
<svg width="104mm" height="1468mm" viewBox="-4 -1468 104 1468" xmlns="http://www.w3.org/2000/svg" version="1.1">
<title>OpenSCAD Model</title>
<path d="
M 21.9,-1270.15 L 32.85,-1270.15 L 32.85,-1267.05 L 43.8,-1267.05 L 43.8,-1318.6 L 46.9,-1318.6
 L 46.9,-1367.05 L 43.8,-1367.05 L 43.8,-1415.5 L 46.9,-1415.5 L 46.9,-1467.05 L 32.85,-1467.05
 L 32.85,-1463.95 L 21.9,-1463.95 L 21.9,-1467.05 L 10.95,-1467.05 L 10.95,-1463.95 L -3.09999,-1463.95
 L -3.09999,-1415.5 L 0,-1415.5 L 0,-1367.05 L -3.09999,-1367.05 L -3.09999,-1318.6 L 0,-1318.6
 L 0,-1270.15 L 10.95,-1270.15 L 10.95,-1267.05 L 21.9,-1267.05 z
M 21.9,-1068.6 L 32.85,-1068.6 L 32.85,-1065.5 L 43.8,-1065.5 L 43.8,-1117.05 L 46.9,-1117.05
 L 46.9,-1165.5 L 43.8,-1165.5 L 43.8,-1213.95 L 46.9,-1213.95 L 46.9,-1262.4 L 43.8,-1262.4
 L 43.8,-1265.5 L 32.85,-1265.5 L 32.85,-1262.4 L 21.9,-1262.4 L 21.9,-1265.5 L 10.95,-1265.5
 L 10.95,-1262.4 L -3.09999,-1262.4 L -3.09999,-1213.95 L 0,-1213.95 L 0,-1165.5 L -3.09999,-1165.5
 L -3.09999,-1117.05 L 0,-1117.05 L 0,-1068.6 L 10.95,-1068.6 L 10.95,-1065.5 L 21.9,-1065.5
 z
M 46.9,-1017.05 L 70.35,-1017.05 L 70.35,-1013.95 L 96.9,-1013.95 L 96.9,-1028 L 93.8,-1028
 L 93.8,-1038.95 L 96.9,-1038.95 L 96.9,-1049.9 L 93.8,-1049.9 L 93.8,-1060.85 L 70.35,-1060.85
 L 70.35,-1063.95 L 46.9,-1063.95 L 46.9,-1060.85 L 23.45,-1060.85 L 23.45,-1063.95 L -3.09999,-1063.95
 L -3.09999,-1060.85 L 0,-1060.85 L 0,-1049.9 L -3.09999,-1049.9 L -3.09999,-1038.95 L 0,-1038.95
 L 0,-1028 L -3.09999,-1028 L -3.09999,-1017.05 L 23.45,-1017.05 L 23.45,-1013.95 L 46.9,-1013.95
 z
M 23.45,-965.5 L 46.9,-965.5 L 46.9,-962.4 L 70.35,-962.4 L 70.35,-965.5 L 96.9,-965.5
 L 96.9,-976.45 L 93.8,-976.45 L 93.8,-987.4 L 96.9,-987.4 L 96.9,-998.35 L 93.8,-998.35
 L 93.8,-1009.3 L 70.35,-1009.3 L 70.35,-1012.4 L 46.9,-1012.4 L 46.9,-1009.3 L 23.45,-1009.3
 L 23.45,-1012.4 L 0,-1012.4 L 0,-998.35 L -3.09999,-998.35 L -3.09999,-987.4 L 0,-987.4
 L 0,-976.45 L -3.09999,-976.45 L -3.09999,-965.5 L 0,-965.5 L 0,-962.4 L 23.45,-962.4
 z
M 0,-763.95 L 23.45,-763.95 L 23.45,-760.85 L 46.9,-760.85 L 46.9,-763.95 L 70.35,-763.95
 L 70.35,-760.85 L 96.9,-760.85 L 96.9,-812.4 L 93.8,-812.4 L 93.8,-860.85 L 96.9,-860.85
 L 96.9,-909.3 L 93.8,-909.3 L 93.8,-960.85 L 70.35,-960.85 L 70.35,-957.75 L 46.9,-957.75
 L 46.9,-960.85 L 23.45,-960.85 L 23.45,-957.75 L 0,-957.75 L 0,-909.3 L -3.09999,-909.3
 L -3.09999,-860.85 L 0,-860.85 L 0,-812.4 L -3.09999,-812.4 L -3.09999,-760.85 L 0,-760.85
 z
M 44.2868,-839.087 L 41.7022,-839.496 L 39.1746,-840.174 L 36.7316,-841.111 L 34.4,-842.299 L 32.2054,-843.725
 L 30.1717,-845.371 L 28.3214,-847.222 L 26.6746,-849.255 L 25.2494,-851.45 L 24.0614,-853.782 L 23.1236,-856.225
 L 22.4463,-858.752 L 22.0369,-861.337 L 21.9,-863.95 L 22.0369,-866.563 L 22.4463,-869.148 L 23.1236,-871.675
 L 24.0614,-874.118 L 25.2494,-876.45 L 26.6746,-878.645 L 28.3214,-880.678 L 30.1717,-882.529 L 32.2054,-884.175
 L 34.4,-885.601 L 36.7316,-886.789 L 39.1746,-887.726 L 41.7022,-888.404 L 44.2868,-888.813 L 46.9,-888.95
 L 49.5132,-888.813 L 52.0978,-888.404 L 54.6254,-887.726 L 57.0684,-886.789 L 59.4,-885.601 L 61.5946,-884.175
 L 63.6283,-882.529 L 65.4786,-880.678 L 67.1254,-878.645 L 68.5506,-876.45 L 69.7386,-874.118 L 70.6764,-871.675
 L 71.3537,-869.148 L 71.763,-866.563 L 71.9,-863.95 L 71.763,-861.337 L 71.3537,-858.752 L 70.6764,-856.225
 L 69.7386,-853.782 L 68.5506,-851.45 L 67.1254,-849.255 L 65.4786,-847.222 L 63.6283,-845.371 L 61.5946,-843.725
 L 59.4,-842.299 L 57.0684,-841.111 L 54.6254,-840.174 L 52.0978,-839.496 L 49.5132,-839.087 L 46.9,-838.95
 z
M 0,-562.4 L 23.45,-562.4 L 23.45,-559.3 L 46.9,-559.3 L 46.9,-562.4 L 70.35,-562.4
 L 70.35,-559.3 L 96.9,-559.3 L 96.9,-610.85 L 93.8,-610.85 L 93.8,-659.3 L 96.9,-659.3
 L 96.9,-707.75 L 93.8,-707.75 L 93.8,-756.2 L 70.35,-756.2 L 70.35,-759.3 L 46.9,-759.3
 L 46.9,-756.2 L 23.45,-756.2 L 23.45,-759.3 L -3.09999,-759.3 L -3.09999,-756.2 L 0,-756.2
 L 0,-707.75 L -3.09999,-707.75 L -3.09999,-659.3 L 0,-659.3 L 0,-610.85 L -3.09999,-610.85
 L -3.09999,-559.3 L 0,-559.3 z
M 46.4,-750 L 46.4,-753.1 L 53.6,-753.1 L 53.6,-750 z
M 54.65,-565.5 L 54.65,-568.6 L 63.95,-568.6 L 63.95,-565.5 z
M 36.05,-565.5 L 36.05,-568.6 L 45.35,-568.6 L 45.35,-565.5 z
M 48.45,-565.5 L 48.45,-568.6 L 51.55,-568.6 L 51.55,-565.5 z
M 37.5,-360.85 L 23.4,-360.85 L 23.4,-363.95 L 37.5,-363.95 L 37.5,-545.35 L 23.4,-545.35
 L 23.4,-548.45 L 37.5,-548.45 L 37.5,-554.65 L 0,-554.65 L 0,-548.45 L 14.1,-548.45
 L 14.1,-545.35 L 0,-545.35 L 0,-363.95 L 14.1,-363.95 L 14.1,-360.85 L 0,-360.85
 L 0,-354.65 L 37.5,-354.65 z
M 26.55,-165.5 L 73.45,-165.5 L 73.45,-162.4 L 76.55,-162.4 L 76.55,-165.5 L 100,-165.5
 L 100,-346.9 L 76.55,-346.9 L 76.55,-350 L 73.45,-350 L 73.45,-346.9 L 26.55,-346.9
 L 26.55,-350 L 23.45,-350 L 23.45,-346.9 L 0,-346.9 L 0,-165.5 L 23.45,-165.5
 L 23.45,-162.4 L 26.55,-162.4 z
M 100,-157.75 L 53.6,-157.75 L 53.6,-160.85 L 50.5,-160.85 L 50.5,-132.95 L 48.4753,-159.85
 L 48.4,-159.85 L 48.4,-160.955 L 47.45,-162.95 L 45.35,-162.95 L 44.35,-160.85 L 46.4,-160.85
 L 46.4,-126.75 L 45.4,-126.75 L 45.4,-157.75 L 0,-157.75 L 0,-82.75 L 100,-82.75
 z
M 23.45,-120.25 L 23.45,-123.35 L 26.55,-123.35 L 26.55,-120.25 z
M 73.45,-120.25 L 73.45,-123.35 L 76.55,-123.35 L 76.55,-120.25 z
M 49.4876,-96.6253 L 48.9809,-96.7056 L 48.4853,-96.8384 L 48.0064,-97.0222 L 47.5492,-97.2551 L 47.1189,-97.5346
 L 46.7202,-97.8575 L 46.3575,-98.2202 L 46.0346,-98.6189 L 45.7551,-99.0492 L 45.5222,-99.5064 L 45.3519,-99.95
 L 31.25,-99.95 L 31.25,-103.05 L 48.45,-103.05 L 48.45,-106.148 L 48.4853,-106.162 L 48.9809,-106.294
 L 49.4876,-106.375 L 50,-106.402 L 50.5123,-106.375 L 51.0191,-106.294 L 51.5146,-106.162 L 51.9936,-105.978
 L 52.4508,-105.745 L 52.881,-105.465 L 53.2798,-105.143 L 53.6425,-104.78 L 53.9654,-104.381 L 54.2448,-103.951
 L 54.4778,-103.494 L 54.6481,-103.05 L 68.75,-103.05 L 68.75,-99.95 L 51.55,-99.95 L 51.55,-96.8519
 L 51.5146,-96.8384 L 51.0191,-96.7056 L 50.5123,-96.6253 L 50,-96.5985 z
M 100,-75 L 63.95,-75 L 63.95,-78.1 L 54.65,-78.1 L 54.65,-75 L 51.55,-75
 L 51.55,-71.9 L 54.65,-71.9 L 54.65,-68.8 L 51.55,-68.8 L 51.55,-65.7 L 48.45,-65.7
 L 48.45,-68.8 L 45.35,-68.8 L 45.35,-71.9 L 48.45,-71.9 L 48.45,-75 L 45.35,-75
 L 45.35,-78.1 L 36.05,-78.1 L 36.05,-75 L 0,-75 L 0,-0 L 100,-0
 z
M 73.45,-37.5 L 73.45,-40.6 L 76.55,-40.6 L 76.55,-37.5 z
M 23.45,-37.5 L 23.45,-40.6 L 26.55,-40.6 L 26.55,-37.5 z
M 49.4876,-13.8753 L 48.9809,-13.9556 L 48.4853,-14.0884 L 48.0064,-14.2722 L 47.5492,-14.5051 L 47.1189,-14.7846
 L 46.7202,-15.1075 L 46.3575,-15.4702 L 46.0346,-15.8689 L 45.7551,-16.2992 L 45.5222,-16.7564 L 45.3519,-17.2
 L 31.25,-17.2 L 31.25,-20.3 L 48.45,-20.3 L 48.45,-23.3981 L 48.4853,-23.4116 L 48.9809,-23.5444
 L 49.4876,-23.6247 L 50,-23.6515 L 50.5123,-23.6247 L 51.0191,-23.5444 L 51.5146,-23.4116 L 51.9936,-23.2278
 L 52.4508,-22.9948 L 52.881,-22.7154 L 53.2798,-22.3925 L 53.6425,-22.0298 L 53.9654,-21.631 L 54.2448,-21.2008
 L 54.4778,-20.7436 L 54.6481,-20.3 L 68.75,-20.3 L 68.75,-17.2 L 51.55,-17.2 L 51.55,-14.1019
 L 51.5146,-14.0884 L 51.0191,-13.9556 L 50.5123,-13.8753 L 50,-13.8485 z
" stroke="black" fill="lightgray" stroke-width="0.5"/>
</svg>
